<?xml version="1.0" encoding="UTF-8" standalone="no"?>
<svg
   data-name="Layer 1"
   width="620.86884"
   height="613.68134"
   viewBox="0 0 620.86883 613.68135"
   version="1.1"
   id="svg114"
   sodipodi:docname="contactBanner.svg"
   inkscape:version="1.1.1 (3bf5ae0d25, 2021-09-20)"
   xmlns:inkscape="http://www.inkscape.org/namespaces/inkscape"
   xmlns:sodipodi="http://sodipodi.sourceforge.net/DTD/sodipodi-0.dtd"
   xmlns="http://www.w3.org/2000/svg"
   xmlns:svg="http://www.w3.org/2000/svg">
  <defs
     id="defs118" />
  <sodipodi:namedview
     id="namedview116"
     pagecolor="#ffffff"
     bordercolor="#666666"
     borderopacity="1.0"
     inkscape:pageshadow="2"
     inkscape:pageopacity="0.0"
     inkscape:pagecheckerboard="0"
     showgrid="false"
     inkscape:zoom="0.65331185"
     inkscape:cx="393.38028"
     inkscape:cy="302.30586"
     inkscape:window-width="1920"
     inkscape:window-height="1017"
     inkscape:window-x="-8"
     inkscape:window-y="-8"
     inkscape:window-maximized="1"
     inkscape:current-layer="svg114" />
  <path
     d="m 582.22609,112.08324 c -3.94109,43.42331 -15.16888,89.21081 -32.77756,133.38965 -21.77541,54.633 -51.52607,102.75355 -86.03669,139.15916 l -1.91519,-1.66994 c 34.34355,-36.23054 63.959,-84.13863 85.64344,-138.54566 19.59746,-49.1666 31.25383,-100.33187 33.7243,-147.941805 l 2.44729,0.40972 q -0.38947,7.542335 -1.08559,15.198875 z"
     fill="#f2f2f2"
     id="path2" />
  <path
     d="M 597.92259,364.27773 C 549.45014,441.39381 490.64278,496.49355 432.33241,519.42582 l -1.17954,-2.16253 c 57.90682,-22.77384 116.36982,-77.59153 164.62082,-154.3551 z"
     fill="#f2f2f2"
     id="path4" />
  <path
     d="m 581.04962,166.14697 c -3.94109,43.42331 -15.16888,89.2108 -32.77756,133.38965 -21.77537,54.63297 -51.52607,102.75357 -86.03669,139.15915 l -1.91519,-1.66993 c 34.34355,-36.23054 63.959,-84.13863 85.64344,-138.54566 19.59746,-49.1666 31.25383,-100.33187 33.7243,-147.9418 l 2.44729,0.40972 q -0.38952,7.54233 -1.08559,15.19887 z"
     fill="#f2f2f2"
     id="path6" />
  <path
     d="M 36.886447,277.62782 H 5.0827365 a 4.50052,4.50052 0 0 1 -3.53467,-1.70264 4.40806,4.40806 0 0 1 -0.86279999,-3.7456 86.49007,86.49007 0 0 0 -0.55517,-40.53614 4.509,4.509 0 0 1 1.74950999,-4.73828 C 18.233127,215.14344 31.112027,215.48475 40.158907,227.92127 a 4.51934,4.51934 0 0 1 0.7915,1.90967 141.54042,141.54042 0 0 1 0.39649,43.9253 4.49088,4.49088 0 0 1 -4.46045,3.87158 z"
     fill="#e6e6e6"
     id="path8" />
  <path
     d="m 27.026477,245.77901 h -10.94052 a 2.281105,2.281105 0 0 1 0,-4.56221 h 10.94052 a 2.28111,2.28111 0 0 1 0,4.56221 z"
     fill="#ffffff"
     id="path10" />
  <path
     d="m 27.026477,253.77901 h -10.94052 a 2.281105,2.281105 0 0 1 0,-4.56221 h 10.94052 a 2.28111,2.28111 0 0 1 0,4.56221 z"
     fill="#ffffff"
     id="path12" />
  <path
     d="m 27.026477,261.77901 h -10.94052 a 2.281105,2.281105 0 0 1 0,-4.56221 h 10.94052 a 2.28111,2.28111 0 0 1 0,4.56221 z"
     fill="#ffffff"
     id="path14" />
  <path
     d="m 614.88645,419.62782 h -31.80371 a 4.50052,4.50052 0 0 1 -3.53467,-1.70264 4.40806,4.40806 0 0 1 -0.8628,-3.7456 86.49007,86.49007 0 0 0 -0.55517,-40.53614 4.509,4.509 0 0 1 1.74951,-4.73828 c 16.35352,-11.76172 29.23242,-11.42041 38.2793,1.01611 a 4.51934,4.51934 0 0 1 0.7915,1.90967 141.54042,141.54042 0 0 1 0.39649,43.9253 4.49088,4.49088 0 0 1 -4.46045,3.87158 z"
     fill="#e6e6e6"
     id="path16" />
  <path
     d="m 605.02648,387.77901 h -10.94052 a 2.28111,2.28111 0 0 1 0,-4.56221 h 10.94052 a 2.281105,2.281105 0 0 1 0,4.56221 z"
     fill="#ffffff"
     id="path18" />
  <path
     d="m 605.02648,395.77901 h -10.94052 a 2.28111,2.28111 0 0 1 0,-4.56221 h 10.94052 a 2.281105,2.281105 0 0 1 0,4.56221 z"
     fill="#ffffff"
     id="path20" />
  <path
     d="m 605.02648,403.77901 h -10.94052 a 2.28111,2.28111 0 0 1 0,-4.56221 h 10.94052 a 2.281105,2.281105 0 0 1 0,4.56221 z"
     fill="#ffffff"
     id="path22" />
  <path
     d="m 176.06419,541.27611 -1.9835,-27.58851 a 89.24413,89.24413 0 0 0 -41.89886,-9.39587 c 20.43166,15.79292 18.79511,47.35761 32.94511,68.95962 a 53.68056,53.68056 0 0 0 40.02768,23.72162 l 17.00407,9.78252 a 89.95172,89.95172 0 0 0 -20.94423,-72.346 86.88849,86.88849 0 0 0 -16.36792,-14.3953 c -3.71677,10.67108 -8.78235,21.26192 -8.78235,21.26192 z"
     fill="#f2f2f2"
     id="path26" />
  <path
     d="m 535.72719,545.27611 1.98354,-27.58851 a 89.24413,89.24413 0 0 1 41.89886,-9.39587 c -20.43166,15.79292 -18.79511,47.35761 -32.94511,68.95962 a 53.68056,53.68056 0 0 1 -40.02768,23.72162 l -17.00411,9.78252 a 89.95172,89.95172 0 0 1 20.94423,-72.346 86.88849,86.88849 0 0 1 16.36792,-14.3953 c 3.71677,10.67108 8.78235,21.26192 8.78235,21.26192 z"
     fill="#f2f2f2"
     id="path28" />
  <circle
     cx="346.89569"
     cy="214.94235"
     r="19"
     fill="#2a94f4"
     id="circle30" />
  <path
     d="m 356.64917,207.02378 a 1.53662,1.53662 0 0 0 -2.12134,0 62.934,62.934 0 0 0 -10.7818,11.01282 q -1.15237,-2.22958 -2.30456,-4.45923 c -0.88672,-1.7157 -3.47638,-0.20007 -2.5904,1.51416 q 1.6854,3.26119 3.37079,6.52234 a 1.51763,1.51763 0 0 0 2.59046,0 60.74823,60.74823 0 0 1 11.83685,-12.46875 1.50907,1.50907 0 0 0 0,-2.12134 z"
     fill="#ffffff"
     id="path32" />
  <path
     d="m 261.88038,268.81947 -28.65153,-44.99568 33.17775,-17.76832 8.708,34.32967 61.3554,33.15483 a 13.26628,13.26628 0 1 1 -7.55,18.04831 z"
     fill="#a0616a"
     id="path34" />
  <path
     d="m 212.2959,169.8559 c -9.00247,13.21766 22.98989,61.26272 22.98989,61.26272 1.55855,-3.35948 16.457,34.366 18.95241,32.13752 7.09206,-6.3337 18.194,-23.97635 24.36508,-24.7628 3.52912,-0.44977 -8.1849,-25.47849 -8.1849,-25.47849 0,0 -5.35362,-14.77941 -12.61819,-33.65869 a 33.90293,33.90293 0 0 0 -24.626,-21.53548 c 0,0 -11.87581,-1.1824 -20.87829,12.03522 z"
     fill="#3f3d56"
     id="path36" />
  <polygon
     points="236.175,600.491 249.782,600.49 256.255,548.005 236.172,548.006 "
     fill="#a0616a"
     id="polygon38"
     transform="translate(-23.439333)" />
  <path
     d="m 209.26415,596.04819 3.83,-1.6e-4 14.95309,-6.08107 8.01441,6.08014 h 0.001 a 17.07841,17.07841 0 0 1 17.07749,17.07722 v 0.555 l -43.8753,0.002 z"
     fill="#2f2e41"
     id="path40" />
  <polygon
     points="299.391,600.491 312.998,600.49 319.472,548.005 299.389,548.006 "
     fill="#a0616a"
     id="polygon42"
     transform="translate(-23.439333)" />
  <path
     d="m 272.48075,596.04819 3.83005,-1.6e-4 14.95309,-6.08107 8.0144,6.08014 h 10e-4 a 17.07841,17.07841 0 0 1 17.07749,17.07722 v 0.555 l -43.87531,0.002 z"
     fill="#2f2e41"
     id="path44" />
  <path
     d="m 281.84169,313.55178 -88.50724,2.21268 c -16.80943,9.13 -17.06468,28.89072 -11.557,52.35232 0,0 -1.8593,13.94482 1.85933,17.66344 3.71863,3.71862 5.57793,3.71863 3.71862,10.22622 -1.85931,6.50759 7.9643,17.13641 6.77112,18.32959 -1.19318,1.19318 -3.98215,7.70077 -3.98215,7.70077 l 9.29656,52.99038 c 0,0 6.50759,92.03593 8.3669,93.89524 1.85931,1.85931 3.71862,0 1.85931,4.64828 -1.85931,4.64828 -3.71862,2.789 -1.85931,4.64828 a 68.471,68.471 0 0 1 4.64828,5.57794 h 22.47644 c 0,0 1.69461,-9.29656 1.69461,-10.22622 0,-0.92966 1.85931,-6.50759 1.85931,-7.43724 0,-0.92965 -1.64337,-2.573 -1.64337,-2.573 a 30.58473,30.58473 0 0 1 -1.1456,-5.79388 c 0,-1.85931 -5.57793,-73.44281 -5.57793,-73.44281 l 11.15584,-92.96558 26.96,91.10627 c 0,0 0,79.9504 1.85931,81.80972 1.85931,1.85932 1.85931,0.92965 0.92966,4.64827 -0.92965,3.71862 -4.64828,2.789 -1.85932,5.57794 2.78896,2.78894 3.71863,-1.85931 2.789,2.789 l -0.92965,4.64828 27.88967,0.39894 c 0,0 3.71863,-7.83619 1.85931,-10.62516 -1.85932,-2.78897 -1.74775,-2.02767 0.52061,-6.59177 2.26836,-4.5641 3.198,-5.49375 2.26836,-6.42341 -0.92964,-0.92966 -0.92965,-5.8744 -0.92965,-5.8744 l -4.64828,-88.9505 c 0,0 -0.92966,-93.89524 -0.92966,-96.6842 a 9.2729,9.2729 0 0 1 0.77227,-4.1823 v -3.78568 l -3.56124,-13.41413 z"
     fill="#2f2e41"
     id="path46" />
  <circle
     cx="228.67416"
     cy="102.01523"
     r="27.499701"
     fill="#a0616a"
     id="circle48" />
  <path
     d="m 242.42402,147.69031 c 5.92443,3.52211 9.46845,9.9935 11.50286,16.5787 a 157.109,157.109 0 0 1 6.75135,37.53694 l 2.14881,38.14144 26.6126,81.21386 c -23.06426,19.51583 -109.75939,4.43539 -109.75939,4.43539 0,0 -2.66125,-0.887 0,-3.54834 2.66125,-2.66134 5.252,-0.30353 2.59079,-2.96481 -2.66121,-2.66128 -0.82668,0.30352 0.0604,-2.35777 0.88709,-2.66129 0,-0.887 -0.88709,-1.77416 -0.88709,-0.88716 6.86736,-8.87092 6.86736,-8.87092 l -7.09667,-46.61745 -8.87084,-94.03118 c 10.64508,-13.3063 32.05365,-21.15028 32.05365,-21.15028 l 5.5317,-9.95707 27.65851,2.21268 z"
     fill="#3f3d56"
     id="path50" />
  <path
     d="m 251.34331,87.405085 a 12.7442,12.7442 0 0 1 4.52746,6.35983 89.51311,89.51311 0 0 0 0.0589,-12.47873 c -0.32412,-2.92035 -2.38014,-3.57724 -4.76083,-4.33839 -2.15,-0.68768 -4.58148,-1.46449 -5.23567,-4.29949 -8.64436,-8.40938 -23.69232,-7.98532 -33.9908,-5.052 -5.66675,1.61413 -8.92743,3.688 -9.21914,4.9029 l -0.0605,0.25012 -0.23013,0.11506 c -4.3681,2.18405 -5.21839,9.08085 -5.1622,14.48182 0.10642,10.17585 3.61991,21.733005 5.59922,22.671885 0.1048,0.0497 0.13127,0.0303 0.17665,-0.008 v 0 c 2.98031,-2.38177 6.61644,0.181 8.21436,1.57416 a 28.6009,28.6009 0 0 1 25.60948,-24.259505 44.87886,44.87886 0 0 0 6.17238,-1.035 12.99489,12.99489 0 0 1 3.15318,-0.41379 8.97355,8.97355 0 0 1 5.14762,1.52869 z"
     fill="#2f2e41"
     id="path52" />
  <path
     d="m 422.05798,335.46419 52.89941,-53.71829 13.93717,-42.96322 -22.42808,-9.07171 c -11.11041,11.20695 -22.54731,45.51492 -22.54731,45.51492 l -36.10559,48.45838 c -0.28835,0.10715 -0.57573,0.22044 -0.859,0.35436 a 10.68681,10.68681 0 1 0 15.1034,11.42556 z"
     fill="#ffb8b8"
     id="path54" />
  <path
     d="m 460.34838,234.62576 28.36321,8.20484 0.10562,-0.0204 c 10.42569,-2.02431 18.6728,-19.35032 23.755,-33.5285 A 19.59609,19.59609 0 0 0 501.9574,184.72412 v 0 a 19.63934,19.63934 0 0 0 -20.49519,3.12519 l -14.14152,12.17726 z"
     fill="#2a94f4"
     id="path56" />
  <polygon
     points="459.521,598.895 444.267,598.894 437.011,540.059 459.523,540.06 "
     fill="#ffb8b8"
     id="polygon58"
     transform="translate(-23.439333)" />
  <path
     d="m 439.97269,593.91465 -4.29344,-1.7e-4 -16.76237,-6.81683 -8.98411,6.8158 h -0.001 a 19.14478,19.14478 0 0 0 -19.14379,19.14351 v 0.6221 l 49.184,0.002 z"
     fill="#2f2e41"
     id="path60" />
  <polygon
     points="527.204,598.895 511.95,598.894 504.694,540.059 527.207,540.06 "
     fill="#ffb8b8"
     id="polygon62"
     transform="translate(-23.439333)" />
  <path
     d="m 507.65588,593.91465 -4.29344,-1.7e-4 -16.76237,-6.81683 -8.98411,6.8158 h -10e-4 a 19.14478,19.14478 0 0 0 -19.14378,19.14351 v 0.6221 l 49.184,0.002 z"
     fill="#2f2e41"
     id="path64" />
  <path
     d="m 527.02363,345.46954 c 0,0 1.78114,21.37362 -2.6717,41.85668 -4.45284,20.48306 -4.45284,78.17012 -4.45284,78.17012 l -9.79624,112.41141 -29.38874,-2.67171 -8.01511,-187.90979 -28.49817,63.23031 2.67171,8.90568 -3.55877,2.22641 c 0,0 2.6682,17.36608 0.88706,17.36608 -1.78114,0 -6.234,2.6717 -6.234,2.6717 l 3.56227,91.72848 -30.2793,-0.89057 -10.68679,-129.13232 11.57738,-73.91713 0.89057,-14.24908 4.00756,0.16475 2.0406,-5.95344 3.74809,-10.24153 z"
     fill="#2f2e41"
     id="path66" />
  <path
     d="m 528.56297,349.9589 0.15872,-0.22264 c 8.47691,-11.86786 -4.27238,-40.386 -6.19528,-44.52012 l 8.099,-2.62822 -1.82372,-15.50273 -0.86405,-6.91147 6.19006,-6.19 0.0174,-0.15437 3.56227,-31.16987 5.17945,-20.70271 a 45.45158,45.45158 0 0 0 -12.90063,-44.04789 l -11.97222,-11.2882 -14.55,-21.52881 h -23.4635 l -8.04511,15.19618 a 34.19881,34.19881 0 0 0 -26.46048,34.91649 l 1.82332,39.85508 -7.138,49.62306 -0.004,8.98047 -8.03291,8.92742 1.75417,8.77044 -6.11352,2.62 -2.69953,12.59666 c -1.11713,1.47413 -8.49083,11.306 -8.49083,13.99383 0,0.40354 0.29787,0.79359 0.93709,1.22632 5.0251,3.40268 32.79968,10.33981 45.09239,5.42081 13.09413,-5.23556 65.14537,2.61865 65.6698,2.69867 z"
     fill="#2a94f4"
     id="path68" />
  <circle
     cx="488.70126"
     cy="107.06759"
     r="31.074459"
     fill="#ffb8b8"
     id="circle70" />
  <path
     d="m 485.72437,138.64519 a 84.51349,84.51349 0 0 0 14.346,-1.37542 c 4.68679,-1.07973 15.02744,-9.0757 17.84571,-13.79945 v 0 c 2.09379,-3.50966 3.3505,-8.93831 4.03626,-12.8741 a 37.77915,37.77915 0 0 0 -7.37934,-29.811395 11.93568,11.93568 0 0 0 -4.92552,-3.98886 c -0.17437,-0.0631 -0.35356,-0.11828 -0.53442,-0.1648 a 14.72652,14.72652 0 0 1 -7.44025,-4.34242 12.14528,12.14528 0 0 0 -1.24975,-1.22149 18.13963,18.13963 0 0 0 -7.66375,-3.60358 c -4.52853,-1.08755 -11.00643,0.27528 -19.25331,4.05409 -4.14323,1.89854 -8.74174,1.3689 -12.28618,0.69532 a 1.1537,1.1537 0 0 0 -1.07625,0.40006 8.14428,8.14428 0 0 1 -5.47647,2.34861 c -1.25845,0.0878 -2.53516,1.86636 -4.07409,4.18236 -0.34918,0.52573 -0.75663,1.1393 -1.05233,1.51371 l -0.0591,-0.70315 -0.69227,0.804 a 9.88285,9.88285 0 0 0 4.87594,15.98065 19.27346,19.27346 0 0 0 3.891,0.51747 c 0.7949,0.0509 1.6172,0.1035 2.40688,0.21961 a 14.90011,14.90011 0 0 1 11.31824,9.380095 3.89666,3.89666 0 0 0 5.92827,1.73939 6.43813,6.43813 0 0 1 5.837,-1.21931 4.27384,4.27384 0 0 1 1.94377,2.09336 5.5697,5.5697 0 0 0 2.17641,2.41036 c 3.23527,1.5637 3.64359,8.85046 2.6539,14.95919 -0.95405,5.88827 -3.02958,10.18369 -5.04727,10.44547 -1.55328,0.20133 -1.72852,0.31657 -1.83419,0.5949 l -0.0944,0.24917 0.1809,0.22612 a 6.36366,6.36366 0 0 0 2.69864,0.29004 z"
     fill="#2f2e41"
     id="path72" />
  <path
     d="m 459.94328,237.94907 -14.93666,-19.03188 c -15.21464,4.18967 -42.21109,28.25266 -42.21109,28.25266 l -55.44155,24.0594 a 10.6812,10.6812 0 1 0 6.489,17.30681 l 72.62706,-20.26172 z"
     fill="#ffb8b8"
     id="path74" />
  <path
     d="m 456.36328,242.30012 23.56811,-26.27257 1.30851,-18.616 a 19.64143,19.64143 0 0 0 -9.74716,-18.29829 v 0 a 19.59508,19.59508 0 0 0 -26.03218,6.17112 c -8.32764,12.55068 -17.28635,29.51961 -12.67669,39.08688 l 0.0467,0.097 z"
     fill="#2a94f4"
     id="path76" />
  <path
     d="m 239.13994,341.04995 -61.25437,-31.37126 c -4.357,-2.23144 -5.80026,-8.15017 -3.21717,-13.19382 l 39.93913,-77.98368 c 2.58309,-5.04365 8.22931,-7.33153 12.58634,-5.10009 l 61.25437,31.37126 c 4.35707,2.23147 5.80031,8.15019 3.21721,13.19385 l -39.93912,77.98366 c -2.58309,5.04367 -8.22932,7.33154 -12.58639,5.10008 z"
     fill="#e6e6e6"
     id="path78" />
  <path
     d="m 228.67402,326.62824 -41.617,-21.31405 c -4.08065,-2.08989 -5.43261,-7.633 -3.01339,-12.35662 l 33.18076,-64.78755 c 2.41922,-4.72367 7.70727,-6.86607 11.78791,-4.77618 l 50.26488,25.743 c 4.08065,2.08989 5.43223,7.63276 3.013,12.35643 l -18.02558,35.19607 c -10.77572,21.04032 -17.41408,39.24794 -35.59058,29.9389 z"
     fill="#ffffff"
     id="path80" />
  <path
     d="m 249.25041,291.24781 -36.8614,-18.87847 a 2.30543,2.30543 0 0 1 2.07954,-4.06043 l 36.8614,18.87847 a 2.30543,2.30543 0 0 1 -2.07954,4.06043 z"
     fill="#2a94f4"
     id="path82" />
  <path
     d="m 216.6925,284.70002 -8.41215,-4.30826 a 2.30557,2.30557 0 0 1 2.07965,-4.06064 l 8.41215,4.30826 a 2.30557,2.30557 0 0 1 -2.07965,4.06064 z"
     fill="#2a94f4"
     id="path84" />
  <path
     d="m 227.4828,300.3529 -23.31111,-11.93871 a 2.30557,2.30557 0 0 1 2.07965,-4.06064 l 23.31111,11.93873 a 2.30557,2.30557 0 0 1 -2.07965,4.06064 z"
     fill="#2a94f4"
     id="path86" />
  <path
     d="m 263.83736,262.76587 -36.8614,-18.87847 a 2.30543,2.30543 0 0 1 2.07954,-4.06043 l 36.8614,18.87847 a 2.30543,2.30543 0 0 1 -2.07954,4.06043 z"
     fill="#2a94f4"
     id="path88" />
  <path
     d="m 231.27945,256.21808 -8.41215,-4.30826 a 2.30557,2.30557 0 0 1 2.07965,-4.06064 l 8.41214,4.30826 a 2.30557,2.30557 0 0 1 -2.07964,4.06064 z"
     fill="#2a94f4"
     id="path90" />
  <path
     d="m 242.06975,271.87096 -23.31106,-11.93877 a 2.30557,2.30557 0 0 1 2.07965,-4.06064 l 23.31111,11.93873 a 2.30557,2.30557 0 0 1 -2.07965,4.06064 z"
     fill="#2a94f4"
     id="path92" />
  <path
     d="m 188.38106,273.15762 -13.83816,-51.51724 36.97936,-7.0002 -1.98857,35.36101 48.58778,50.02955 a 13.26627,13.26627 0 1 1 -12.61527,14.95323 z"
     fill="#a0616a"
     id="path94" />
  <path
     d="m 170.75883,163.87878 c -12.55213,9.90933 3.55855,65.33753 3.55855,65.33753 2.49434,-2.73742 5.39291,37.7197 8.44176,36.34213 8.66512,-3.91519 24.5472,-17.41617 30.67005,-16.31569 3.50155,0.62935 -0.167,-26.76038 -0.167,-26.76038 0,0 -0.67475,-15.70467 -1.94289,-35.89361 A 33.90293,33.90293 0 0 0 194.28549,158.6591 c 0,0 -10.97452,-4.68961 -23.52666,5.21968 z"
     fill="#3f3d56"
     id="path96" />
  <path
     d="m 379.6146,387.50419 -33.42618,-15.78416 a 5.231,5.231 0 0 1 -2.87,-3.54375 5.12352,5.12352 0 0 1 0.95213,-4.36489 100.58,100.58 0 0 0 19.41281,-42.25364 5.19671,5.19671 0 0 1 5.09238,-4.19039 c 17.04776,0.058 29.78887,6.28279 37.868,18.49922 a 5.2612,5.2612 0 0 1 0.68837,4.37574 164.52691,164.52691 0 0 1 -21.1081,45.4065 5.21976,5.21976 0 0 1 -6.60941,1.85537 z"
     fill="#e6e6e6"
     id="path98" />
  <path
     d="m 389.44769,365.36607 -25.55814,-12.06878 a 2.6513316,2.6513316 0 1 1 2.26422,-4.79495 l 25.55809,12.06878 a 2.6513316,2.6513316 0 1 1 -2.26422,4.79495 z"
     fill="#ffffff"
     id="path100" />
  <path
     d="m 393.41804,356.95794 -25.5581,-12.06875 a 2.6513316,2.6513316 0 0 1 2.26422,-4.79495 l 25.5581,12.06877 a 2.6513542,2.6513542 0 0 1 -2.26422,4.795 z"
     fill="#ffffff"
     id="path102" />
  <path
     d="m 359.26704,93.015085 -2.37941,0.26061 C 346.28016,51.591335 325.71946,22.712845 297.42612,9.7616951 261.45837,-6.7015149 216.98283,4.3538351 172.19204,40.891695 127.17363,77.616095 87.320487,135.6247 59.974857,204.23455 l -2.30844,-1.05643 C 85.132127,134.26864 125.18983,75.979715 170.46052,39.051175 215.95822,1.9359651 261.34152,-9.2004549 298.2501,7.6938151 327.35491,21.016085 348.45387,50.519805 359.26704,93.015085 Z"
     fill="#f2f2f2"
     id="path104" />
  <path
     d="m 96.792687,147.30361 c -6.22164,13.10661 -12.13943,26.68513 -17.58916,40.358 -31.36052,78.68222 -47.25268,159.03767 -45.954,232.38347 l -2.451,-0.26154 c -1.3,-73.61855 14.6379,-154.25079 46.09659,-233.17836 5.46537,-13.71145 11.4,-27.32833 17.63957,-40.47193 z"
     fill="#f2f2f2"
     id="path106" />
  <path
     d="m 95.616257,201.36734 c -6.22164,13.1066 -12.13943,26.68513 -17.58916,40.358 -31.36052,78.68222 -47.25268,159.03767 -45.954,232.38347 l -2.451,-0.26154 c -1.3,-73.61855 14.6379,-154.25079 46.09659,-233.17837 5.46537,-13.71144 11.4,-27.32832 17.63957,-40.47193 z"
     fill="#f2f2f2"
     id="path108" />
  <ellipse
     cx="-167.5498"
     cy="136.9976"
     rx="8.8566999"
     ry="10.19466"
     transform="rotate(-56.36398)"
     fill="#cccccc"
     id="ellipse110" />
  <ellipse
     cx="29.581297"
     cy="698.80774"
     rx="8.8566999"
     ry="10.19466"
     transform="rotate(-56.36398)"
     fill="#cccccc"
     id="ellipse112" />
</svg>
