<?xml version="1.0" encoding="UTF-8" standalone="no"?>
<svg
   data-name="Layer 1"
   width="378.26355"
   height="547.99689"
   viewBox="0 0 378.26355 547.9969"
   version="1.1"
   id="svg114"
   sodipodi:docname="contact.svg"
   inkscape:version="1.1.1 (3bf5ae0d25, 2021-09-20)"
   xmlns:inkscape="http://www.inkscape.org/namespaces/inkscape"
   xmlns:sodipodi="http://sodipodi.sourceforge.net/DTD/sodipodi-0.dtd"
   xmlns="http://www.w3.org/2000/svg"
   xmlns:svg="http://www.w3.org/2000/svg">
  <defs
     id="defs118" />
  <sodipodi:namedview
     id="namedview116"
     pagecolor="#ffffff"
     bordercolor="#666666"
     borderopacity="1.0"
     inkscape:pageshadow="2"
     inkscape:pageopacity="0.0"
     inkscape:pagecheckerboard="0"
     showgrid="false"
     inkscape:zoom="0.65331185"
     inkscape:cx="228.06872"
     inkscape:cy="236.48737"
     inkscape:window-width="1920"
     inkscape:window-height="1017"
     inkscape:window-x="-8"
     inkscape:window-y="-8"
     inkscape:window-maximized="1"
     inkscape:current-layer="svg114" />
  <circle
     cx="180.92204"
     cy="149.25795"
     fill="#2a94f4"
     id="circle30"
     r="19" />
  <path
     d="m 190.67551,141.33937 a 1.53662,1.53662 0 0 0 -2.12134,0 62.934,62.934 0 0 0 -10.7818,11.01282 q -1.15237,-2.22958 -2.30456,-4.45923 c -0.88672,-1.7157 -3.47638,-0.20007 -2.5904,1.51416 q 1.6854,3.26119 3.37079,6.52234 a 1.51763,1.51763 0 0 0 2.59046,0 60.74823,60.74823 0 0 1 11.83685,-12.46875 1.50907,1.50907 0 0 0 0,-2.12134 z"
     fill="#ffffff"
     id="path32" />
  <path
     d="m 95.90672,203.13506 -28.65153,-44.99568 33.17775,-17.76832 8.708,34.32967 61.3554,33.15483 a 13.26628,13.26628 0 1 1 -7.55,18.04831 z"
     fill="#a0616a"
     id="path34" />
  <path
     d="m 46.32224,104.17149 c -9.00247,13.21766 22.98989,61.26272 22.98989,61.26272 1.55855,-3.35948 16.457,34.366 18.95241,32.13752 7.09206,-6.3337 18.194,-23.97635 24.36508,-24.7628 3.52912,-0.44977 -8.1849,-25.47849 -8.1849,-25.47849 0,0 -5.35362,-14.77941 -12.61819,-33.65869 a 33.90293,33.90293 0 0 0 -24.626,-21.53548 c 0,0 -11.87581,-1.1824 -20.87829,12.03522 z"
     fill="#3f3d56"
     id="path36" />
  <polygon
     points="256.255,548.005 236.172,548.006 236.175,600.491 249.782,600.49 "
     fill="#a0616a"
     id="polygon38"
     transform="translate(-189.41299,-65.68441)" />
  <path
     d="m 43.29049,530.36378 3.83,-1.6e-4 14.95309,-6.08107 8.01441,6.08014 h 10e-4 a 17.07841,17.07841 0 0 1 17.07749,17.07722 v 0.555 l -43.8753,0.002 z"
     fill="#2f2e41"
     id="path40" />
  <polygon
     points="319.472,548.005 299.389,548.006 299.391,600.491 312.998,600.49 "
     fill="#a0616a"
     id="polygon42"
     transform="translate(-189.41299,-65.68441)" />
  <path
     d="m 106.50709,530.36378 3.83005,-1.6e-4 14.95309,-6.08107 8.0144,6.08014 h 0.001 a 17.07841,17.07841 0 0 1 17.07749,17.07722 v 0.555 l -43.87531,0.002 z"
     fill="#2f2e41"
     id="path44" />
  <path
     d="m 115.86803,247.86737 -88.50724,2.21268 c -16.80943,9.13 -17.06468,28.89072 -11.557,52.35232 0,0 -1.8593,13.94482 1.85933,17.66344 3.71863,3.71862 5.57793,3.71863 3.71862,10.22622 -1.85931,6.50759 7.9643,17.13641 6.77112,18.32959 -1.19318,1.19318 -3.98215,7.70077 -3.98215,7.70077 l 9.29656,52.99038 c 0,0 6.50759,92.03593 8.3669,93.89524 1.85931,1.85931 3.71862,0 1.85931,4.64828 -1.85931,4.64828 -3.71862,2.789 -1.85931,4.64828 a 68.471,68.471 0 0 1 4.64828,5.57794 h 22.47644 c 0,0 1.69461,-9.29656 1.69461,-10.22622 0,-0.92966 1.85931,-6.50759 1.85931,-7.43724 0,-0.92965 -1.64337,-2.573 -1.64337,-2.573 a 30.58473,30.58473 0 0 1 -1.1456,-5.79388 c 0,-1.85931 -5.57793,-73.44281 -5.57793,-73.44281 l 11.15584,-92.96558 26.96,91.10627 c 0,0 0,79.9504 1.85931,81.80972 1.85931,1.85932 1.85931,0.92965 0.92966,4.64827 -0.92965,3.71862 -4.64828,2.789 -1.85932,5.57794 2.78896,2.78894 3.71863,-1.85931 2.789,2.789 l -0.92965,4.64828 27.88967,0.39894 c 0,0 3.71863,-7.83619 1.85931,-10.62516 -1.85932,-2.78897 -1.74775,-2.02767 0.52061,-6.59177 2.26836,-4.5641 3.198,-5.49375 2.26836,-6.42341 -0.92964,-0.92966 -0.92965,-5.8744 -0.92965,-5.8744 l -4.64828,-88.9505 c 0,0 -0.92966,-93.89524 -0.92966,-96.6842 a 9.2729,9.2729 0 0 1 0.77227,-4.1823 v -3.78568 l -3.56124,-13.41413 z"
     fill="#2f2e41"
     id="path46" />
  <circle
     cx="62.7005"
     cy="36.330818"
     fill="#a0616a"
     id="circle48"
     r="27.499701" />
  <path
     d="m 76.45036,82.0059 c 5.92443,3.52211 9.46845,9.9935 11.50286,16.5787 a 157.109,157.109 0 0 1 6.75135,37.53694 l 2.14881,38.14144 26.6126,81.21386 c -23.06426,19.51583 -109.75939,4.43539 -109.75939,4.43539 0,0 -2.66125,-0.887 0,-3.54834 2.66125,-2.66134 5.252,-0.30353 2.59079,-2.96481 -2.66121,-2.66128 -0.82668,0.30352 0.0604,-2.35777 0.88709,-2.66129 0,-0.887 -0.88709,-1.77416 -0.88709,-0.88716 6.86736,-8.87092 6.86736,-8.87092 L 15.24138,193.77878 6.3705398,99.7476 C 17.01562,86.4413 38.42419,78.59732 38.42419,78.59732 l 5.5317,-9.95707 27.65851,2.21268 z"
     fill="#3f3d56"
     id="path50" />
  <path
     d="m 85.36965,21.720675 a 12.7442,12.7442 0 0 1 4.52746,6.35983 89.51311,89.51311 0 0 0 0.0589,-12.47873 c -0.32412,-2.92035 -2.38014,-3.57724 -4.76083,-4.33839 -2.15,-0.68768 -4.58148,-1.4644896 -5.23567,-4.2994896 -8.64436,-8.40938 -23.69232,-7.98532 -33.9908,-5.052 -5.66675,1.61413 -8.92743,3.688 -9.21914,4.9029 l -0.0605,0.25012 -0.23013,0.11506 c -4.3681,2.18405 -5.21839,9.0808496 -5.1622,14.4818196 0.10642,10.17585 3.61991,21.733005 5.59922,22.671885 0.1048,0.0497 0.13127,0.0303 0.17665,-0.008 v 0 c 2.98031,-2.38177 6.61644,0.181 8.21436,1.57416 a 28.6009,28.6009 0 0 1 25.60948,-24.259505 44.87886,44.87886 0 0 0 6.17238,-1.035 12.99489,12.99489 0 0 1 3.15318,-0.41379 8.97355,8.97355 0 0 1 5.14762,1.52869 z"
     fill="#2f2e41"
     id="path52" />
  <path
     d="m 256.08432,269.77978 52.89941,-53.71829 13.93717,-42.96322 -22.42808,-9.07171 c -11.11041,11.20695 -22.54731,45.51492 -22.54731,45.51492 l -36.10559,48.45838 c -0.28835,0.10715 -0.57573,0.22044 -0.859,0.35436 a 10.68681,10.68681 0 1 0 15.1034,11.42556 z"
     fill="#ffb8b8"
     id="path54" />
  <path
     d="m 294.37472,168.94135 28.36321,8.20484 0.10562,-0.0204 c 10.42569,-2.02431 18.6728,-19.35032 23.755,-33.5285 a 19.59609,19.59609 0 0 0 -10.61481,-24.55758 v 0 a 19.63934,19.63934 0 0 0 -20.49519,3.12519 l -14.14152,12.17726 z"
     fill="#2a94f4"
     id="path56" />
  <polygon
     points="437.011,540.059 459.523,540.06 459.521,598.895 444.267,598.894 "
     fill="#ffb8b8"
     id="polygon58"
     transform="translate(-189.41299,-65.68441)" />
  <path
     d="m 273.99903,528.23024 -4.29344,-1.7e-4 -16.76237,-6.81683 -8.98411,6.8158 h -0.001 a 19.14478,19.14478 0 0 0 -19.14379,19.14351 v 0.6221 l 49.184,0.002 z"
     fill="#2f2e41"
     id="path60" />
  <polygon
     points="504.694,540.059 527.207,540.06 527.204,598.895 511.95,598.894 "
     fill="#ffb8b8"
     id="polygon62"
     transform="translate(-189.41299,-65.68441)" />
  <path
     d="m 341.68222,528.23024 -4.29344,-1.7e-4 -16.76237,-6.81683 -8.98411,6.8158 h -10e-4 a 19.14478,19.14478 0 0 0 -19.14378,19.14351 v 0.6221 l 49.184,0.002 z"
     fill="#2f2e41"
     id="path64" />
  <path
     d="m 361.04997,279.78513 c 0,0 1.78114,21.37362 -2.6717,41.85668 -4.45284,20.48306 -4.45284,78.17012 -4.45284,78.17012 l -9.79624,112.41141 -29.38874,-2.67171 -8.01511,-187.90979 -28.49817,63.23031 2.67171,8.90568 -3.55877,2.22641 c 0,0 2.6682,17.36608 0.88706,17.36608 -1.78114,0 -6.234,2.6717 -6.234,2.6717 l 3.56227,91.72848 -30.2793,-0.89057 -10.68679,-129.13232 11.57738,-73.91713 0.89057,-14.24908 4.00756,0.16475 2.0406,-5.95344 3.74809,-10.24153 z"
     fill="#2f2e41"
     id="path66" />
  <path
     d="m 362.58931,284.27449 0.15872,-0.22264 c 8.47691,-11.86786 -4.27238,-40.386 -6.19528,-44.52012 l 8.099,-2.62822 -1.82372,-15.50273 -0.86405,-6.91147 6.19006,-6.19 0.0174,-0.15437 3.56227,-31.16987 5.17945,-20.70271 a 45.45158,45.45158 0 0 0 -12.90063,-44.04789 l -11.97222,-11.2882 -14.55,-21.52881 h -23.4635 l -8.04511,15.19618 a 34.19881,34.19881 0 0 0 -26.46048,34.91649 l 1.82332,39.85508 -7.138,49.62306 -0.004,8.98047 -8.03291,8.92742 1.75417,8.77044 -6.11352,2.62 -2.69953,12.59666 c -1.11713,1.47413 -8.49083,11.306 -8.49083,13.99383 0,0.40354 0.29787,0.79359 0.93709,1.22632 5.0251,3.40268 32.79968,10.33981 45.09239,5.42081 13.09413,-5.23556 65.14537,2.61865 65.6698,2.69867 z"
     fill="#2a94f4"
     id="path68" />
  <circle
     cx="322.7276"
     cy="41.383179"
     fill="#ffb8b8"
     id="circle70"
     r="31.074459" />
  <path
     d="m 319.75071,72.96078 a 84.51349,84.51349 0 0 0 14.346,-1.37542 c 4.68679,-1.07973 15.02744,-9.0757 17.84571,-13.79945 v 0 c 2.09379,-3.50966 3.3505,-8.93831 4.03626,-12.8741 a 37.77915,37.77915 0 0 0 -7.37934,-29.811395 11.93568,11.93568 0 0 0 -4.92552,-3.98886 c -0.17437,-0.0631 -0.35356,-0.11828 -0.53442,-0.1648 a 14.72652,14.72652 0 0 1 -7.44025,-4.3424196 12.14528,12.14528 0 0 0 -1.24975,-1.22149 18.13963,18.13963 0 0 0 -7.66375,-3.60358 c -4.52853,-1.08755012 -11.00643,0.27528 -19.25331,4.05409 -4.14323,1.89854 -8.74174,1.3689 -12.28618,0.69532 a 1.1537,1.1537 0 0 0 -1.07625,0.40006 8.14428,8.14428 0 0 1 -5.47647,2.34861 c -1.25845,0.0878 -2.53516,1.8663596 -4.07409,4.1823596 -0.34918,0.52573 -0.75663,1.1393 -1.05233,1.51371 l -0.0591,-0.70315 -0.69227,0.804 a 9.88285,9.88285 0 0 0 4.87594,15.98065 19.27346,19.27346 0 0 0 3.891,0.51747 c 0.7949,0.0509 1.6172,0.1035 2.40688,0.21961 a 14.90011,14.90011 0 0 1 11.31824,9.380095 3.89666,3.89666 0 0 0 5.92827,1.73939 6.43813,6.43813 0 0 1 5.837,-1.21931 4.27384,4.27384 0 0 1 1.94377,2.09336 5.5697,5.5697 0 0 0 2.17641,2.41036 c 3.23527,1.5637 3.64359,8.85046 2.6539,14.95919 -0.95405,5.88827 -3.02958,10.18369 -5.04727,10.44547 -1.55328,0.20133 -1.72852,0.31657 -1.83419,0.5949 l -0.0944,0.24917 0.1809,0.22612 a 6.36366,6.36366 0 0 0 2.69864,0.29004 z"
     fill="#2f2e41"
     id="path72" />
  <path
     d="m 293.96962,172.26466 -14.93666,-19.03188 c -15.21464,4.18967 -42.21109,28.25266 -42.21109,28.25266 l -55.44155,24.0594 a 10.6812,10.6812 0 1 0 6.489,17.30681 l 72.62706,-20.26172 z"
     fill="#ffb8b8"
     id="path74" />
  <path
     d="m 290.38962,176.61571 23.56811,-26.27257 1.30851,-18.616 a 19.64143,19.64143 0 0 0 -9.74716,-18.29829 v 0 a 19.59508,19.59508 0 0 0 -26.03218,6.17112 c -8.32764,12.55068 -17.28635,29.51961 -12.67669,39.08688 l 0.0467,0.097 z"
     fill="#2a94f4"
     id="path76" />
  <path
     d="M 73.16628,275.36554 11.91191,243.99428 C 7.5549098,241.76284 6.1116498,235.84411 8.6947398,230.80046 L 48.63387,152.81678 c 2.58309,-5.04365 8.22931,-7.33153 12.58634,-5.10009 l 61.25437,31.37126 c 4.35707,2.23147 5.80031,8.15019 3.21721,13.19385 l -39.93912,77.98366 c -2.58309,5.04367 -8.22932,7.33154 -12.58639,5.10008 z"
     fill="#e6e6e6"
     id="path78" />
  <path
     d="m 62.70036,260.94383 -41.617,-21.31405 c -4.08065,-2.08989 -5.43261,-7.633 -3.01339,-12.35662 l 33.18076,-64.78755 c 2.41922,-4.72367 7.70727,-6.86607 11.78791,-4.77618 l 50.26488,25.743 c 4.08065,2.08989 5.43223,7.63276 3.013,12.35643 l -18.02558,35.19607 c -10.77572,21.04032 -17.41408,39.24794 -35.59058,29.9389 z"
     fill="#ffffff"
     id="path80" />
  <path
     d="m 83.27675,225.5634 -36.8614,-18.87847 a 2.30543,2.30543 0 0 1 2.07954,-4.06043 l 36.8614,18.87847 a 2.30543,2.30543 0 0 1 -2.07954,4.06043 z"
     fill="#2a94f4"
     id="path82" />
  <path
     d="m 50.71884,219.01561 -8.41215,-4.30826 a 2.30557,2.30557 0 0 1 2.07965,-4.06064 l 8.41215,4.30826 a 2.30557,2.30557 0 0 1 -2.07965,4.06064 z"
     fill="#2a94f4"
     id="path84" />
  <path
     d="M 61.50914,234.66849 38.19803,222.72978 a 2.30557,2.30557 0 0 1 2.07965,-4.06064 l 23.31111,11.93873 a 2.30557,2.30557 0 0 1 -2.07965,4.06064 z"
     fill="#2a94f4"
     id="path86" />
  <path
     d="M 97.8637,197.08146 61.0023,178.20299 a 2.30543,2.30543 0 0 1 2.07954,-4.06043 l 36.8614,18.87847 a 2.30543,2.30543 0 0 1 -2.07954,4.06043 z"
     fill="#2a94f4"
     id="path88" />
  <path
     d="m 65.30579,190.53367 -8.41215,-4.30826 a 2.30557,2.30557 0 0 1 2.07965,-4.06064 l 8.41214,4.30826 a 2.30557,2.30557 0 0 1 -2.07964,4.06064 z"
     fill="#2a94f4"
     id="path90" />
  <path
     d="M 76.09609,206.18655 52.78503,194.24778 a 2.30557,2.30557 0 0 1 2.07965,-4.06064 l 23.31111,11.93873 a 2.30557,2.30557 0 0 1 -2.07965,4.06064 z"
     fill="#2a94f4"
     id="path92" />
  <path
     d="M 22.4074,207.47321 8.5692398,155.95597 45.5486,148.95577 l -1.98857,35.36101 48.58778,50.02955 a 13.26627,13.26627 0 1 1 -12.61527,14.95323 z"
     fill="#a0616a"
     id="path94" />
  <path
     d="m 4.7851698,98.19437 c -12.55213,9.90933 3.55855,65.33753 3.55855,65.33753 2.4943402,-2.73742 5.3929102,37.7197 8.4417602,36.34213 8.66512,-3.91519 24.5472,-17.41617 30.67005,-16.31569 3.50155,0.62935 -0.167,-26.76038 -0.167,-26.76038 0,0 -0.67475,-15.70467 -1.94289,-35.89361 A 33.90293,33.90293 0 0 0 28.31183,92.97469 c 0,0 -10.97452,-4.68961 -23.5266602,5.21968 z"
     fill="#3f3d56"
     id="path96" />
  <path
     d="m 213.64094,321.81978 -33.42618,-15.78416 a 5.231,5.231 0 0 1 -2.87,-3.54375 5.12352,5.12352 0 0 1 0.95213,-4.36489 100.58,100.58 0 0 0 19.41281,-42.25364 5.19671,5.19671 0 0 1 5.09238,-4.19039 c 17.04776,0.058 29.78887,6.28279 37.868,18.49922 a 5.2612,5.2612 0 0 1 0.68837,4.37574 164.52691,164.52691 0 0 1 -21.1081,45.4065 5.21976,5.21976 0 0 1 -6.60941,1.85537 z"
     fill="#e6e6e6"
     id="path98" />
  <path
     d="m 223.47403,299.68166 -25.55814,-12.06878 a 2.6513316,2.6513316 0 1 1 2.26422,-4.79495 l 25.55809,12.06878 a 2.6513316,2.6513316 0 1 1 -2.26422,4.79495 z"
     fill="#ffffff"
     id="path100" />
  <path
     d="m 227.44438,291.27353 -25.5581,-12.06875 a 2.6513316,2.6513316 0 0 1 2.26422,-4.79495 l 25.5581,12.06877 a 2.6513542,2.6513542 0 0 1 -2.26422,4.795 z"
     fill="#ffffff"
     id="path102" />
</svg>
