<?xml version="1.0" encoding="UTF-8" standalone="no"?>
<svg
   id="Layer_1"
   data-name="Layer 1"
   viewBox="0 0 307.32001 247.35972"
   width="311.92981"
   height="252.30692"
   class="illustration styles_illustrationTablet__1DWOa"
   version="1.1"
   sodipodi:docname="contactodirecto.svg"
   inkscape:version="1.1.1 (3bf5ae0d25, 2021-09-20)"
   xmlns:inkscape="http://www.inkscape.org/namespaces/inkscape"
   xmlns:sodipodi="http://sodipodi.sourceforge.net/DTD/sodipodi-0.dtd"
   xmlns="http://www.w3.org/2000/svg"
   xmlns:svg="http://www.w3.org/2000/svg"
   xmlns:rdf="http://www.w3.org/1999/02/22-rdf-syntax-ns#"
   xmlns:cc="http://creativecommons.org/ns#"
   xmlns:dc="http://purl.org/dc/elements/1.1/">
  <defs
     id="defs133" />
  <sodipodi:namedview
     id="namedview131"
     pagecolor="#ffffff"
     bordercolor="#666666"
     borderopacity="1.0"
     inkscape:pageshadow="2"
     inkscape:pageopacity="0.0"
     inkscape:pagecheckerboard="0"
     showgrid="false"
     inkscape:zoom="1.8578884"
     inkscape:cx="61.898228"
     inkscape:cy="112.22418"
     inkscape:window-width="1920"
     inkscape:window-height="1017"
     inkscape:window-x="-8"
     inkscape:window-y="-8"
     inkscape:window-maximized="1"
     inkscape:current-layer="Layer_1" />
  <title
     id="title2">#4 web development</title>
  <ellipse
     cx="56.709999"
     cy="237.09932"
     rx="56.709999"
     ry="10.74"
     fill="#e6e6e6"
     opacity="0.45"
     id="ellipse4" />
  <rect
     x="59.479996"
     y="56.859314"
     width="209.10001"
     height="137.39999"
     fill="#e6e6e6"
     id="rect6" />
  <circle
     cx="69.589996"
     cy="65.979309"
     r="3.4200001"
     fill="#24285b"
     id="circle8" />
  <circle
     cx="79.75"
     cy="65.979309"
     r="3.4200001"
     fill="#2b8eb5"
     id="circle10" />
  <circle
     cx="89.329994"
     cy="65.979309"
     r="3.4200001"
     fill="#ffd200"
     id="circle12" />
  <path
     d="m 234.69,56.859312 -49.25,0.2 -7.88,11.09 -74.25,68.189998 6.1,11.85 -20.850002,8.22 h -20.32 l -2.69,37.85 h 23.76 l 3.36,-22.1 c 19.890002,-2.65 33.000002,-20.88 33.000002,-20.88 v 0 l 86.64,-37.05 -11,-25.339998 14.63,-7 0.81,4.59 c 0,0 7.91,-2.18 7.58,-9.55 -0.33,-7.37 -1.02,-16.52 10.36,-20.07 z"
     opacity="0.08"
     id="path14" />
  <path
     d="m 194.05,28.929312 c -1.21,9.69 -6.21,29.71 -26.74,38.63 l 3,5 c 0,0 28.57,-9 35.46,-32 3.09,-10.35 1.12,-14.84 -2,-16.66 a 6.58,6.58 0 0 0 -9.72,5.03 z"
     fill="#2b8eb5"
     id="path16" />
  <path
     d="m 194.05,28.929312 c -1.21,9.69 -6.21,29.71 -26.74,38.63 l 3,5 c 0,0 28.57,-9 35.46,-32 3.09,-10.35 1.12,-14.84 -2,-16.66 a 6.58,6.58 0 0 0 -9.72,5.03 z"
     fill="#ffffff"
     opacity="0.2"
     id="path18" />
  <polygon
     points="237.59,34.4 229.84,27.52 228.36,33.05 233.27,39.04 "
     fill="#f4a28c"
     id="polygon20"
     transform="translate(-31.690002,-19.440688)" />
  <path
     d="m 193.21,2.609312 a 4.57,4.57 0 0 0 -5.11,5.72 c 0.91,3.5 2.87,8.27 6.61,6.63 5.71,-2.5 2.71,-10 2.71,-10 a 8.35,8.35 0 0 0 -4.21,-2.35 z"
     fill="#f4a28c"
     id="path22" />
  <path
     d="m 200.8,49.499312 -9.74,5 a 7,7 0 0 0 -2.86,9.66 l 8.75,15.15 4.26,-3 -5,-13.82 a 1.73,1.73 0 0 1 1.21,-2.28 l 9.71,-2.37 -1.73,4.6 a 9.64,9.64 0 0 0 1,8.78 l 9,13.42 3.41,-2.09 -4.33,-11.89 a 7.6,7.6 0 0 1 1.53,-7.73 l 4.69,-5.14 z"
     fill="#24285b"
     id="path24" />
  <rect
     x="236.66"
     y="171.55931"
     width="58.5"
     height="37"
     fill="#f2f2f2"
     id="rect26" />
  <rect
     x="227.29999"
     y="171.55931"
     width="9.5100002"
     height="22.700001"
     opacity="0.08"
     id="rect28" />
  <path
     d="m 185.92,3.879312 c 0,0 -1.58,5.08 3.92,3.83 5.5,-1.25 5.08,-3 5.08,-3 0,0 0.42,6 3.17,4.67 2.75,-1.33 1.17,-4.6 0,-6.84 -1.17,-2.24000001 -1.86,-2.91000001 -5,-3.24000001 -3.14,-0.32999999 -6.78,1.5 -7.17,4.58000001 z"
     fill="#24285b"
     id="path30" />
  <path
     d="m 195.01,8.209312 c 0,0 -0.23,-1.71 1.42,-1.38 1.65,0.33 1,2.71 0,2.88 -1,0.17 -1.42,-1.5 -1.42,-1.5 z"
     fill="#f4a28c"
     id="path32" />
  <polygon
     points="78.37,168.7 76.27,155.96 81.73,157.66 84.18,165.01 "
     fill="#f4a28c"
     id="polygon34"
     transform="translate(-31.690002,-19.440688)" />
  <path
     d="m 42.589998,129.41931 a 4.58,4.58 0 0 1 7.57,-1.27 c 2.47,2.64 5.45,6.85 2.08,9.13 -5.17,3.5 -9.91,-3 -9.91,-3 a 8.35,8.35 0 0 1 0.26,-4.86 z"
     fill="#f4a28c"
     id="path36" />
  <path
     d="m 46.369998,133.92931 c 0,0 -1.33,-1.11 -1.93,0.46 -0.6,1.57 1.74,2.34 2.44,1.54 0.7,-0.8 -0.51,-2 -0.51,-2 z"
     fill="#f4a28c"
     id="path38" />
  <path
     d="m 200.54,18.329312 5.36,-3.37 c 0,0 17.41,-5.95 22.91,-0.48 5.5,5.47 5.89,26.11 -8.11,43.31 l -19.9,-8.29 c 0,0 0.4,-9.9 -2.91,-12.4 -3.31,-2.5 -7.38,-10 2.65,-18.77 z"
     fill="#2b8eb5"
     id="path40" />
  <path
     d="m 197.95,78.559312 c 0,0 -1.09,5.06 0.86,4.88 1.95,-0.18 2.4,-7.18 2.4,-7.18 z"
     fill="#2b8eb5"
     id="path42" />
  <path
     d="m 215.5,84.409312 c 0,0 -1.09,5.05 0.86,4.88 1.95,-0.17 2.39,-7.18 2.39,-7.18 z"
     fill="#2b8eb5"
     id="path44" />
  <path
     d="m 243.12,54.329312 c 0,0 -3.36,1.45 -2.12,3.11 1.24,1.66 5.49,-0.58 5.49,-0.58 l 0.26,-2.53 z"
     fill="#f4a28c"
     id="path46" />
  <path
     d="m 167.72,68.149312 c 0,0 -5.52,0.45 -4.36,1.72 a 5.94,5.94 0 0 0 2.1,1.61 c 0,0 -4,4.47 -1.09,5.36 2.91,0.89 5.75,-4.68 5.75,-4.68 z"
     fill="#f4a28c"
     id="path48" />
  <rect
     x="27.693008"
     y="134.54831"
     width="107.40084"
     height="42.595516"
     transform="rotate(-24.775141)"
     fill="#ffd200"
     id="rect50"
     style="stroke-width:1.00225" />
  <rect
     x="69.872459"
     y="145.45894"
     width="51.5"
     height="7"
     transform="rotate(-24.68)"
     fill="#ffffff"
     opacity="0.58"
     id="rect52" />
  <rect
     x="69.867165"
     y="159.96133"
     width="51.5"
     height="7"
     transform="rotate(-24.68)"
     fill="#ffffff"
     opacity="0.58"
     id="rect54" />
  <circle
     cx="110.34999"
     cy="121.62932"
     r="11.12"
     fill="#ffffff"
     id="circle56" />
  <polyline
     points="288.24 202.33 280.44 209.91 288.24 217.5"
     fill="none"
     stroke="#a5a5a5"
     stroke-linecap="round"
     stroke-linejoin="round"
     stroke-width="2"
     id="polyline58"
     transform="translate(-31.690002,-19.440688)" />
  <polyline
     points="305.11 202.33 312.91 209.91 305.11 217.5"
     fill="none"
     stroke="#a5a5a5"
     stroke-linecap="round"
     stroke-linejoin="round"
     stroke-width="2"
     id="polyline60"
     transform="translate(-31.690002,-19.440688)" />
  <path
     d="m 159.99,44.739312 c 0,0 -9.61,-2.58 -11.68,-11.5 0,0 14.85,-3.07 15.34,12.27 z"
     fill="#2b8eb5"
     opacity="0.58"
     id="path62" />
  <path
     d="m 161.16,43.779312 c 0,0 -6.75,-10.57 -0.89,-20.5 0,0 11.33,7.13 6.37,20.5 z"
     fill="#2b8eb5"
     opacity="0.73"
     id="path64" />
  <path
     d="m 162.89,43.779312 c 0,0 3.49,-11.2 14.19,-13.37 0,0 2,7.26 -6.88,13.37 z"
     fill="#2b8eb5"
     id="path66" />
  <line
     x1="268.01999"
     y1="182.88931"
     x2="260.54001"
     y2="198.05931"
     fill="none"
     stroke="#a5a5a5"
     stroke-linecap="round"
     stroke-linejoin="round"
     stroke-width="2"
     id="line68" />
  <rect
     x="73"
     y="80.979309"
     width="29.309999"
     height="5.5"
     fill="#cecece"
     opacity="0.63"
     id="rect70" />
  <path
     d="m 45.379998,147.80931 c 0,0 -17.17,10.4 -19.42,34.8 a 8.46,8.46 0 0 0 6.41,9 l 20.12,4.95 z"
     fill="#2b8eb5"
     id="path72" />
  <path
     d="m 45.379998,147.80931 c 0,0 -17.17,10.4 -19.42,34.8 a 8.46,8.46 0 0 0 6.41,9 l 20.12,4.95 z"
     fill="#ffffff"
     opacity="0.2"
     id="path74" />
  <polygon
     points="201.87,76.3 203.62,63 187.62,63 189.62,76.3 "
     fill="#24285b"
     id="polygon76"
     transform="translate(-31.690002,-19.440688)" />
  <path
     d="m 47.099998,132.01931 c 0,0 2.74,7.86 -2.05,7.37 -4.79,-0.49 -2.16,-3.87 -4.54,-7.37 -2.38,-3.5 -1.12,-5.86 2.5,-8.93 1.67,-1.41 2.79,-2.06 3.45,-2.81 a 2.57,2.57 0 0 1 4.31,0.61 c 1.24,3.02 1.25,7.06 -3.67,11.13 z"
     fill="#24285b"
     id="path78" />
  <rect
     x="224.63998"
     y="93.179314"
     width="43.939999"
     height="69.089996"
     opacity="0.08"
     id="rect80" />
  <rect
     x="-30.563217"
     y="181.98277"
     width="34.238056"
     height="24.541615"
     transform="rotate(-14.452428)"
     fill="#ffd200"
     id="rect82"
     style="stroke-width:1.0017" />
  <polygon
     points="69.9,222.43 78.79,220.13 81.44,213.05 72.9,196.34 67.09,197.85 70.89,213.7 "
     opacity="0.08"
     id="polygon84"
     transform="translate(-31.690002,-19.440688)" />
  <path
     d="m 41.409998,152.91931 a 13.79,13.79 0 0 1 8.67,-7.56 c 7.34,-2.21 21.28,-6.83 25.4,0 5.64,9.4 -3,46.31 -3,46.31 l -24.67,1.91 c 0,0 -13.61,-24.44 -6.4,-40.66 z"
     fill="#2b8eb5"
     id="path86" />
  <polygon
     points="95.75,253.55 91.17,220.6 79.83,213.05 104.13,211.14 100.88,253.55 "
     fill="#24285b"
     id="polygon88"
     transform="translate(-31.690002,-19.440688)" />
  <polygon
     points="78.25,253.55 90.13,219.91 79.83,213.05 72.75,253.55 "
     fill="#24285b"
     id="polygon90"
     transform="translate(-31.690002,-19.440688)" />
  <path
     d="m 60.749998,151.00931 a 7,7 0 0 1 6.56,-9.13 c 3.14,-0.1 6.75,0.44 9.52,2.68 6.17,5 26.400002,8.4 44.660002,-8.31 l 3.51,5.39 c 0,0 -20.74,27 -53.220002,19.24 a 15.2,15.2 0 0 1 -10.9,-9.56 c -0.05,-0.1 -0.09,-0.21 -0.13,-0.31 z"
     fill="#2b8eb5"
     id="path92" />
  <path
     d="m 60.749998,151.00931 a 7,7 0 0 1 6.56,-9.13 c 3.14,-0.1 6.75,0.44 9.52,2.68 6.17,5 26.400002,8.4 44.660002,-8.31 l 3.51,5.39 c 0,0 -20.74,27 -53.220002,19.24 a 15.2,15.2 0 0 1 -10.9,-9.56 c -0.05,-0.1 -0.09,-0.21 -0.13,-0.31 z"
     fill="#ffffff"
     opacity="0.2"
     id="path94" />
  <path
     d="m 52.209998,144.70931 c 0,0 -11.54,37.17 21.78,39.63 l -1.55,7.36 -24.67,1.91 a 64,64 0 0 1 -8.33,-32.82 c 0,0 0.21,-9.48 6.89,-13.67 a 15.09,15.09 0 0 1 5.88,-2.41 z"
     opacity="0.08"
     id="path96" />
  <path
     d="m 42.059998,234.10931 -3.41,2.51 a 0.75,0.75 0 0 0 0.44,1.36 h 5.72 a 0.76,0.76 0 0 0 0.75,-0.75 v -3.12 z"
     fill="#2b8eb5"
     id="path98" />
  <path
     d="m 69.049998,234.10931 3.21,2.51 a 0.76,0.76 0 0 1 -0.47,1.36 h -4.07 a 2.18,2.18 0 0 1 -2.17,-2.18 v -1.69 z"
     fill="#2b8eb5"
     id="path100" />
  <rect
     x="234.69"
     y="79.729309"
     width="72.629997"
     height="74.580002"
     fill="#f2f2f2"
     id="rect102" />
  <rect
     x="247.81"
     y="98.129311"
     width="44.75"
     height="2.6800001"
     fill="#a5a5a5"
     id="rect104" />
  <rect
     x="247.81"
     y="115.05931"
     width="44.75"
     height="2.6800001"
     fill="#a5a5a5"
     id="rect106" />
  <rect
     x="247.81"
     y="131.9893"
     width="44.75"
     height="2.6800001"
     fill="#a5a5a5"
     id="rect108" />
  <rect
     x="286.31"
     y="93.179314"
     width="7.8499999"
     height="12.58"
     rx="3.9200001"
     ry="3.9200001"
     fill="#24285b"
     id="rect110" />
  <rect
     x="268.57999"
     y="110.10931"
     width="7.8499999"
     height="12.58"
     rx="3.9200001"
     ry="3.9200001"
     fill="#2b8eb5"
     id="rect112" />
  <rect
     x="256.57999"
     y="127.04932"
     width="7.8499999"
     height="12.58"
     rx="3.9200001"
     ry="3.9200001"
     fill="#ffd200"
     id="rect114" />
  <rect
     x="131.69"
     y="158.3493"
     width="81.970001"
     height="18.68"
     fill="#ffffff"
     id="rect116" />
  <rect
     x="185.70999"
     y="158.3493"
     width="27.950001"
     height="18.68"
     fill="#24285b"
     id="rect118" />
  <path
     d="m 124.08,140.24931 c 0,0 4.28,1.4 5.19,-4.9 l -7.27,1.71 z"
     fill="#f4a28c"
     id="path120" />
  <path
     d="m 209,52.909312 c 0,0 8.7,-1.66 11.7,-13.66 3,-12 -3.39,-21.53 2.78,-23 6.17,-1.47 8.73,14.18 8.73,14.18 0,0 0.24,12.24 -11.51,27.38 z"
     opacity="0.08"
     id="path122" />
  <path
     d="m 227.48,13.409312 c 5.12,1.82 13.12,5.44 18.52,11.57 a 16,16 0 0 1 3.81,12.89 l -2.42,16.46 h -5.75 l 0.26,-15 a 7.38,7.38 0 0 0 -5.19,-7.11 c -6.21,-1.9 -15.74,-6.12 -15.75,-14.12 a 4.9,4.9 0 0 1 6.52,-4.69 z"
     fill="#2b8eb5"
     id="path124" />
  <path
     d="m 227.48,13.409312 c 5.12,1.82 13.12,5.44 18.52,11.57 a 16,16 0 0 1 3.81,12.89 l -2.42,16.46 h -5.75 l 0.26,-15 a 7.38,7.38 0 0 0 -5.19,-7.11 c -6.21,-1.9 -15.74,-6.12 -15.75,-14.12 a 4.9,4.9 0 0 1 6.52,-4.69 z"
     fill="#ffffff"
     opacity="0.2"
     id="path126" />
  <rect
     x="175.98"
     y="144.7093"
     width="37.330002"
     height="4.54"
     opacity="0.08"
     id="rect128" />
  <metadata
     id="metadata952">
    <rdf:RDF>
      <cc:Work
         rdf:about="">
        <dc:title>#4 web development</dc:title>
      </cc:Work>
    </rdf:RDF>
  </metadata>
</svg>
