<?xml version="1.0" encoding="UTF-8" standalone="no"?>
<svg
   viewBox="0 0 294.65546 224.95217"
   width="299.07529"
   height="229.45122"
   class="illustration styles_illustrationTablet__1DWOa"
   version="1.1"
   id="svg86"
   sodipodi:docname="mantenimiento.svg"
   inkscape:version="1.1.1 (3bf5ae0d25, 2021-09-20)"
   xmlns:inkscape="http://www.inkscape.org/namespaces/inkscape"
   xmlns:sodipodi="http://sodipodi.sourceforge.net/DTD/sodipodi-0.dtd"
   xmlns:xlink="http://www.w3.org/1999/xlink"
   xmlns="http://www.w3.org/2000/svg"
   xmlns:svg="http://www.w3.org/2000/svg">
  <sodipodi:namedview
     id="namedview88"
     pagecolor="#ffffff"
     bordercolor="#666666"
     borderopacity="1.0"
     inkscape:pageshadow="2"
     inkscape:pageopacity="0.0"
     inkscape:pagecheckerboard="0"
     showgrid="false"
     inkscape:zoom="0.9289442"
     inkscape:cx="114.10804"
     inkscape:cy="-64.05121"
     inkscape:window-width="1920"
     inkscape:window-height="1017"
     inkscape:window-x="-8"
     inkscape:window-y="-8"
     inkscape:window-maximized="1"
     inkscape:current-layer="svg86" />
  <defs
     id="defs9">
    <linearGradient
       id="linear-gradient"
       x1="261.60999"
       y1="215.96001"
       x2="237.28999"
       y2="238.13"
       gradientUnits="userSpaceOnUse">
      <stop
         offset="0"
         stop-color="#f7931e"
         id="stop2" />
      <stop
         offset="1"
         stop-color="#fff"
         id="stop4" />
    </linearGradient>
    <linearGradient
       id="linear-gradient-2"
       x1="293.85999"
       y1="191.82001"
       x2="275.47"
       y2="210.84"
       xlink:href="#linear-gradient" />
    <linearGradient
       id="linear-gradient-3"
       x1="166.92"
       y1="177.92"
       x2="142.74001"
       y2="212.63"
       xlink:href="#linear-gradient" />
    <linearGradient
       inkscape:collect="always"
       xlink:href="#linear-gradient"
       id="linearGradient905"
       gradientUnits="userSpaceOnUse"
       x1="261.60999"
       y1="215.96001"
       x2="237.28999"
       y2="238.13" />
  </defs>
  <g
     style="isolation:isolate"
     id="g84"
     transform="translate(-62.943178,-44.515777)">
    <g
       id="Layer_2"
       data-name="Layer 2">
      <path
         d="M 67.21,177.19 222.46,267 a 21.22,21.22 0 0 0 21.2,0 l 109.1,-62.67 a 9.65,9.65 0 0 0 0,-16.73 L 190.43,93.93 67.34,162.34 a 8.53,8.53 0 0 0 -0.13,14.85 z"
         fill="#fcc054"
         id="path11" />
      <path
         d="M 272.3,228.92 246.17,216.43 215,235.75 c 1.8,1.34 10.8,5 24.87,14.12 12.25,-8.12 15.86,-10.08 32.43,-20.95 z"
         fill="url(#linear-gradient)"
         style="mix-blend-mode:multiply;fill:url(#linearGradient905)"
         id="path13" />
      <path
         d="m 318.36,196.88 -25.78,-16.68 -38.7,22.58 c 1.8,1.34 13.22,8.74 27.29,17.88 12.26,-8.12 25.14,-15.34 37.19,-23.78 z"
         fill="url(#linear-gradient-2)"
         style="mix-blend-mode:multiply;fill:url(#linear-gradient-2)"
         id="path15" />
      <path
         d="M 178.38,241.61 220.49,215.54 121.22,159.25 82,185.34 c 5.47,3.6 92.69,52.33 96.38,56.27 z"
         fill="url(#linear-gradient-3)"
         style="mix-blend-mode:multiply;fill:url(#linear-gradient-3)"
         id="path17" />
      <polyline
         points="112 166.61 112 169.57 113.49 171.4"
         fill="#adcee1"
         id="polyline19" />
      <path
         d="m 171.43,130.6 -57.74,35.78 a 3.58,3.58 0 0 0 0.12,6.16 l 87.61,49.56 a 8,8 0 0 0 8,-0.07 l 57.47,-33.79 c 4.18,-3.43 3.86,-9.89 0,-10.16 l -87.1,-47.62 a 8.14,8.14 0 0 0 -8.36,0.14 z"
         fill="#88d3d8"
         id="path21" />
      <path
         d="m 171.43,128.14 -57.74,35.78 a 3.58,3.58 0 0 0 0.12,6.16 l 87.61,49.56 a 8,8 0 0 0 8,-0.07 l 57.47,-33.79 a 4.45,4.45 0 0 0 0,-7.7 L 179.78,128 a 8.14,8.14 0 0 0 -8.35,0.14 z"
         fill="#ffffff"
         id="path23" />
      <path
         d="m 173.78,123.25 c 0,0 24,-77.38 23.83,-77.38 -0.17,0 0.75,-3.44 5,-1.5 l 92,54.16 c 0,0 4.46,1.81 3.59,6 -0.87,4.19 -23.44,75.72 -23.44,75.72 a 3.89,3.89 0 0 1 -4.35,1.5 c -2.8,-0.87 -94.52,-54.15 -94.52,-54.15 a 3.52,3.52 0 0 1 -2.11,-4.35 z"
         fill="#053855"
         id="path25" />
      <polygon
         points="273.82,172.04 178.38,118.73 199.14,51.49 293.36,106.42 "
         fill="#68e1fd"
         id="polygon27" />
      <path
         d="m 167.88,136.34 -21.11,13.15 a 2.55,2.55 0 0 0 0.09,4.37 l 75.77,43.19 a 7.45,7.45 0 0 0 7.45,0 c 4.87,-2.84 13.26,-8 18.39,-11.1 a 3.1,3.1 0 0 0 -0.06,-5.32 c -15.32,-8.91 -65.32,-38 -76.27,-44.34 a 4.12,4.12 0 0 0 -4.26,0.05 z"
         fill="#68e1fd"
         id="path29" />
      <path
         d="m 169,172 26.47,14.89 a 2.64,2.64 0 0 1 0,4.59 L 180,200.62 a 3.51,3.51 0 0 1 -3.52,0 L 149.36,185.2 a 2.21,2.21 0 0 1 0,-3.84 l 16.19,-9.3 A 3.51,3.51 0 0 1 169,172 Z"
         fill="#68e1fd"
         id="path31" />
      <path
         d="m 167.88,136.34 -21.11,13.15 a 2.55,2.55 0 0 0 0.09,4.37 l 75.77,43.19 a 7.45,7.45 0 0 0 7.45,0 c 4.87,-2.84 13.26,-8 18.39,-11.1 a 3.1,3.1 0 0 0 -0.06,-5.32 c -15.32,-8.91 -65.32,-38 -76.27,-44.34 a 4.12,4.12 0 0 0 -4.26,0.05 z"
         fill="#053855"
         opacity="0.1"
         id="path33" />
      <path
         d="m 169,172 26.47,14.89 a 2.64,2.64 0 0 1 0,4.59 L 180,200.62 a 3.51,3.51 0 0 1 -3.52,0 L 149.36,185.2 a 2.21,2.21 0 0 1 0,-3.84 l 16.19,-9.3 A 3.51,3.51 0 0 1 169,172 Z"
         fill="#053855"
         opacity="0.1"
         id="path35" />
      <path
         d="m 305.5,204.41 22.3,-13.23 a 3.41,3.41 0 0 0 0.12,-5.8 l -18.43,-12 a 5.71,5.71 0 0 0 -6.31,0 l -21.9,14.74 a 3.41,3.41 0 0 0 0.15,5.75 l 17.43,10.46 a 6.47,6.47 0 0 0 6.64,0.08 z"
         fill="#b24800"
         id="path37" />
      <path
         d="m 305.5,202.4 22.3,-13.23 a 3.41,3.41 0 0 0 0.12,-5.8 l -18.43,-12 a 5.71,5.71 0 0 0 -6.31,0 l -21.9,14.74 a 3.41,3.41 0 0 0 0.15,5.75 l 17.43,10.46 a 6.47,6.47 0 0 0 6.64,0.08 z"
         fill="#df5d00"
         id="path39" />
      <path
         d="m 301.79,149.4 -11.84,37.45 c 0,0 -2.89,9.5 14.87,8.54 17.76,-0.96 15.42,-9.78 15.42,-9.78 L 308.39,149.4"
         fill="#ff8522"
         id="path41" />
      <path
         d="m 297.4,163.27 c 0,0 2.35,2.43 7.76,2.43 6.76,0 7.48,-3.33 7.48,-3.33 l 2.48,7.57 c 0,0 -1.78,4.27 -10,4.13 -7.4,-0.12 -10.3,-2.78 -10.3,-2.78"
         fill="#ffffff"
         id="path43" />
      <path
         d="m 293,177.54 a 16.92,16.92 0 0 0 12,4.76 c 8.79,-0.1 12.09,-6.35 12.09,-6.35 l 2.61,8 c 0,0 -3.77,5.85 -14.61,6.63 -10.22,0.73 -14.61,-5 -14.61,-5"
         fill="#ffffff"
         id="path45" />
      <path
         d="M 304.34,149.67 H 301.8 L 290,187.12 c 0,0 -2.69,8.86 13.11,8.6 0.31,-15.35 1.08,-30.72 1.23,-46.05 z"
         fill="#ff8522"
         opacity="0.15"
         style="mix-blend-mode:multiply"
         id="path47" />
      <ellipse
         cx="305.16"
         cy="149.67"
         rx="3.3699999"
         ry="1.9299999"
         fill="#ff9f57"
         id="ellipse49" />
      <polyline
         points="216.25 159.25 219 157.57 219 147.81 149.44 105.93 146.17 107.27"
         fill="#ffba93"
         id="polyline51" />
      <polyline
         points="172.34 158.36 172.34 162.55 148.21 176.55 140.92 172.19 140.37 167.09"
         fill="#ca5a00"
         id="polyline53" />
      <polygon
         points="147.72,172.27 172.34,158.36 164.48,153.17 140.37,167.09 "
         fill="#ff8522"
         id="polygon55" />
      <polyline
         points="222.75 188.47 222.75 192.65 198.62 206.65 191.34 202.29 190.79 197.2"
         fill="#ca5a00"
         id="polyline57" />
      <polygon
         points="198.14,202.38 222.75,188.47 214.9,183.28 190.79,197.2 "
         fill="#ff8522"
         id="polygon59" />
      <path
         d="m 158,123.18 v 40.18 c 0,0 -1.16,2.12 -5.3,0 V 121"
         fill="#ffba93"
         id="path61" />
      <path
         d="m 210.12,153 v 40.18 c 0,0 -1.16,2.12 -5.3,0 v -42.36"
         fill="#ffba93"
         id="path63" />
      <polygon
         points="146.17,118.49 146.17,107.27 216.25,148.67 216.25,159.25 "
         fill="#ff8522"
         id="polygon65" />
      <polygon
         points="272.3,222.41 272.3,228.92 267.32,231.46 267.32,224.85 "
         fill="#494443"
         id="polygon67" />
      <polygon
         points="244.14,212.55 267.32,224.85 272.3,222.41 248.91,209.7 "
         fill="#666666"
         id="polygon69" />
      <polyline
         points="244.14 212.55 244.14 219.77 267.32 231.46 267.32 224.85"
         fill="#494443"
         id="polyline71" />
      <path
         d="m 260.46,225.79 a 3.65,3.65 0 0 0 -0.49,-0.94 9.5,9.5 0 0 0 -2.06,-1.82 c -0.74,-0.43 -1.52,-0.81 -2.25,-1.26 -0.43,-0.27 -0.85,-0.56 -1.28,-0.82 -0.43,-0.26 -1,-0.48 -1.5,-0.7 -1.18,-0.3 -2.65,0.82 -3.69,1.42 l -4.33,2.45 -6.52,3.69 -7.73,4.37 -7.94,4.5 -7.16,4.06 -5.39,3.05 -2.64,1.49 a 0.56,0.56 0 0 1 -0.11,0.06 2.3,2.3 0 0 0 -1.73,2.23 v 0.27 a 2.31,2.31 0 0 0 1.23,2 l 6,3.21 a 2.31,2.31 0 0 0 2.6,-0.3 l 41.7,-23.94 0.55,-0.32 c 0.75,-0.76 2,-0.92 2.74,-2.39 0.09,-0.1 0.02,-0.19 0,-0.31 z"
         fill="#68e1fd"
         id="path73" />
      <path
         d="m 215.77,252.71 44.44,-25.51 a 1,1 0 0 0 0.45,-1 3.64,3.64 0 0 0 -0.59,-1.29 7.66,7.66 0 0 0 -1.44,-1.36 L 215,249.32 a 3.13,3.13 0 0 1 1,1.93 1.84,1.84 0 0 1 -0.25,1.28 c 0.02,0.06 0.03,0.12 0.02,0.18 z"
         opacity="0.5"
         id="path75" />
      <path
         d="m 234.12,94.05 -25.74,22.35 a 4.69,4.69 0 0 0 1,7.74 L 239,138.87 a 4.69,4.69 0 0 0 6.75,-4.69 L 241.86,97.1 a 4.69,4.69 0 0 0 -7.74,-3.05 z"
         fill="#ffffff"
         id="path77" />
      <path
         d="m 232.85,102.61 -3.42,13.6 c -0.63,2.5 3.23,3.56 3.86,1.06 l 3.42,-13.6 c 0.63,-2.49 -3.23,-3.56 -3.86,-1.06 z"
         fill="#ff8522"
         id="path79" />
      <path
         d="M 226.88,125.58 V 126 c 0,2.57 4,2.58 4,0 v -0.42 c 0,-2.58 -4,-2.58 -4,0 z"
         fill="#ff8522"
         id="path81" />
    </g>
  </g>
</svg>
