<?xml version="1.0" encoding="UTF-8" standalone="no"?>
<svg
   id="Layer_1"
   data-name="Layer 1"
   viewBox="0 0 284.27437 371.89271"
   width="308.17706"
   height="306.02692"
   class="illustration styles_illustrationTablet__1DWOa"
   version="1.1"
   sodipodi:docname="pensando.svg"
   inkscape:version="1.1.1 (3bf5ae0d25, 2021-09-20)"
   xmlns:inkscape="http://www.inkscape.org/namespaces/inkscape"
   xmlns:sodipodi="http://sodipodi.sourceforge.net/DTD/sodipodi-0.dtd"
   xmlns:xlink="http://www.w3.org/1999/xlink"
   xmlns="http://www.w3.org/2000/svg"
   xmlns:svg="http://www.w3.org/2000/svg"
   xmlns:rdf="http://www.w3.org/1999/02/22-rdf-syntax-ns#"
   xmlns:cc="http://creativecommons.org/ns#"
   xmlns:dc="http://purl.org/dc/elements/1.1/">
  <sodipodi:namedview
     id="namedview89"
     pagecolor="#ffffff"
     bordercolor="#666666"
     borderopacity="1.0"
     inkscape:pageshadow="2"
     inkscape:pageopacity="0.0"
     inkscape:pagecheckerboard="0"
     showgrid="false"
     inkscape:zoom="1.8578884"
     inkscape:cx="116.26102"
     inkscape:cy="149.90136"
     inkscape:window-width="1920"
     inkscape:window-height="1017"
     inkscape:window-x="-8"
     inkscape:window-y="-8"
     inkscape:window-maximized="1"
     inkscape:current-layer="Layer_1" />
  <defs
     id="defs26">
    <radialGradient
       id="radial-gradient"
       cx="250.59"
       cy="72.529999"
       r="42.549999"
       gradientUnits="userSpaceOnUse"
       gradientTransform="translate(-45.110652,0.03185102)">
      <stop
         offset="0"
         stop-color="#fff"
         id="stop2" />
      <stop
         offset="1"
         stop-color="#fff"
         stop-opacity="0"
         id="stop4" />
    </radialGradient>
    <linearGradient
       id="linear-gradient"
       x1="188.74001"
       y1="149"
       x2="183.39999"
       y2="461.73999"
       gradientUnits="userSpaceOnUse">
      <stop
         offset="0.01"
         id="stop7" />
      <stop
         offset="0.13"
         stop-opacity="0.69"
         id="stop9" />
      <stop
         offset="1"
         stop-opacity="0"
         id="stop11" />
    </linearGradient>
    <linearGradient
       id="linear-gradient-2"
       x1="217.53"
       y1="172.45"
       x2="253.75999"
       y2="187.3"
       xlink:href="#linear-gradient"
       gradientTransform="translate(-82.690652,-18.698149)" />
    <linearGradient
       id="linear-gradient-3"
       x1="255.36"
       y1="244.25999"
       x2="294.39999"
       y2="331.60999"
       xlink:href="#linear-gradient"
       gradientTransform="translate(-82.690652,-18.698149)" />
    <linearGradient
       id="linear-gradient-4"
       x1="162.83"
       y1="220.48"
       x2="224.31"
       y2="189.74001"
       xlink:href="#linear-gradient"
       gradientTransform="translate(-82.690652,-18.698149)" />
    <linearGradient
       id="linear-gradient-5"
       x1="274.67999"
       y1="213.96001"
       x2="181.89999"
       y2="203.56"
       xlink:href="#linear-gradient"
       gradientTransform="translate(-82.690652,-18.698149)" />
    <linearGradient
       id="linear-gradient-6"
       x1="106.75"
       y1="324.51001"
       x2="239.17999"
       y2="191.37"
       xlink:href="#linear-gradient"
       gradientTransform="translate(-82.690652,-18.698149)" />
    <radialGradient
       id="radial-gradient-2"
       cx="287.70999"
       cy="79.809998"
       r="23.389999"
       gradientUnits="userSpaceOnUse"
       gradientTransform="translate(-82.690652,-18.698149)">
      <stop
         offset="0.34"
         stop-color="#fff"
         id="stop19" />
      <stop
         offset="1"
         stop-color="#fff"
         stop-opacity="0.39"
         id="stop21" />
    </radialGradient>
    <linearGradient
       id="linear-gradient-7"
       x1="237.59"
       y1="92.220001"
       x2="261.03"
       y2="92.220001"
       xlink:href="#linear-gradient"
       gradientTransform="translate(-45.110652,0.03185102)" />
    <linearGradient
       id="linear-gradient-8"
       x1="236.34"
       y1="92.360001"
       x2="262.56"
       y2="92.360001"
       xlink:href="#linear-gradient"
       gradientTransform="translate(-45.110652,0.03185102)" />
    <linearGradient
       inkscape:collect="always"
       xlink:href="#linear-gradient"
       id="linearGradient908"
       gradientUnits="userSpaceOnUse"
       x1="188.74001"
       y1="149"
       x2="183.39999"
       y2="461.73999"
       gradientTransform="translate(-45.110652,0.03185102)" />
  </defs>
  <title
     id="title28">Thinking</title>
  <path
     d="m 17.679348,27.501851 c -28.17,23.5 -44.84,59.63 -46.45,96.269999 -0.94,21.58 3,43.2 1.29,64.73 -3.21,40 -25.76,79.67 -14.52,118.16 11.55,39.55 55.44,61.34 96.52,64.6 41.08,3.26 81.950002,-7.1 123.120002,-8.64 22.42,-0.85 44.95,0.93 67.26,-1.43 22.31,-2.36 45.06,-9.38 61.08,-25.08 16.02,-15.7 23.49,-38.33 23.41,-60.57 -0.08,-22.24 -7.24,-44 -17.43,-63.73 -10.72,-20.8 -25,-40.31 -30,-63.18 -7,-32.21 4.46,-70.119999 -16,-95.999999 -12.68,-16 -33.93,-21.93 -53.73,-26.94 -32.92,-8.31 -66.6,-20.04 -100.32,-24.47 a 124.09,124.09 0 0 0 -50.600002,3.31 c -6.29,1.77 -43.63,14.49 -43.63,22.97 z"
     fill="#2a94f4"
     opacity="0.18"
     style="isolation:isolate"
     id="path30" />
  <circle
     cx="205.47935"
     cy="72.561852"
     r="63.150002"
     fill="url(#radial-gradient)"
     id="circle32"
     style="fill:url(#radial-gradient)" />
  <ellipse
     cx="140.99936"
     cy="303.21185"
     rx="145.23"
     ry="30.290001"
     fill="url(#linear-gradient)"
     id="ellipse34"
     style="fill:url(#linearGradient908)" />
  <path
     d="m 205.09935,304.92185 a 6,6 0 0 0 1.56,2.6 5.12,5.12 0 0 0 2.42,1 c 3,0.52 7,-2.55 6.61,-4.2 -0.39,-1.65 0.18,-7.43 -0.12,-9.1 a 6.58,6.58 0 0 0 -0.58,-2.16 c -0.9,-1.55 -3.05,-1.72 -4.83,-1.55 -2.37,0.24 -6.06,1 -6.79,3.62 -0.76,2.82 0.77,7.17 1.73,9.79 z"
     fill="#f5bbb9"
     id="path36" />
  <path
     d="m 110.52935,138.79185 c -3.34,2.48 -4.36,7.23 -3.43,11.29 0.93,4.06 3.45,7.56 6.11,10.76 a 101.33,101.33 0 0 0 24,21.05 c 3.3,2.07 6.84,4 10.72,4.43 4.36,0.48 8.69,-1 12.84,-2.38 a 17.11,17.11 0 0 0 5.42,-2.61 13.67,13.67 0 0 0 3.65,-5.33 42.83,42.83 0 0 0 3.3,-15.58 c 0.26,-7.05 -1.21,-7.16 -3.67,-13.77 -1.84,-5 -4.83,-10.82 -9.94,-9.41 -13.68,3.76 -9.69,18.4 -9.68,25.05 -4.51,-5.31 -12.89,-12.94 -18.13,-17.53 -4.32,-3.83 -15.41,-10.25 -21.19,-5.97 z"
     fill="#2a94f4"
     id="path38" />
  <path
     d="m 110.52935,138.79185 c -3.34,2.48 -4.36,7.23 -3.43,11.29 0.93,4.06 3.45,7.56 6.11,10.76 a 101.33,101.33 0 0 0 24,21.05 c 3.3,2.07 6.84,4 10.72,4.43 4.36,0.48 8.69,-1 12.84,-2.38 a 17.11,17.11 0 0 0 5.42,-2.61 13.67,13.67 0 0 0 3.65,-5.33 42.83,42.83 0 0 0 3.3,-15.58 c 0.26,-7.05 -1.21,-7.16 -3.67,-13.77 -1.84,-5 -4.83,-10.82 -9.94,-9.41 -13.68,3.76 -9.69,18.4 -9.68,25.05 -4.51,-5.31 -12.89,-12.94 -18.13,-17.53 -4.32,-3.83 -15.41,-10.25 -21.19,-5.97 z"
     fill="url(#linear-gradient-2)"
     id="path40"
     style="fill:url(#linear-gradient-2)" />
  <path
     d="m 153.45935,117.24185 c -1.3,2.47 -0.09,5.69 -1.34,8.18 a 6.5,6.5 0 0 1 -3.36,2.87 c -2.48,1.06 -5.3,1.21 -7.72,2.38 a 10,10 0 0 0 -4.8,5 c -0.93,2.2 -1.13,4.84 -2.87,6.48 -2.09,2 -5.43,1.59 -8.2,0.81 -1.9,-0.53 -3.92,-1.31 -4.94,-3 a 7,7 0 0 1 -0.77,-3.66 c 0,-3.06 0.91,-6.05 1.5,-9.05 0.85,-4.31 1.14,-8.72 2.15,-13 1.01,-4.28 2.84,-8.52 6.16,-11.4 3.32,-2.879999 10.61,-10.309999 14.8,-9.579999 4,0.71 4.9,9.619999 7.14,12.999999 a 33.38,33.38 0 0 1 2,4 c 1.41,2.96 1.78,4.08 0.25,6.97 z"
     fill="#f5bbb9"
     id="path42" />
  <path
     d="m 147.05935,94.821851 c -0.82,2.66 -3.43,4.28 -5.81,5.719999 -2.38,1.44 -4.95,3.17 -5.58,5.88 -0.4,1.66 0,3.54 -1,5 a 6.69,6.69 0 0 0 -1.34,-2 2.24,2.24 0 0 0 -2.24,-0.54 2.39,2.39 0 0 0 -1.26,2.23 4.19,4.19 0 0 0 3.46,4.08 13,13 0 0 0 -2.18,5.59 c -0.29,2.08 -0.14,4.39 -1.46,6 a 4.19,4.19 0 0 1 -5.74,0.55 3.62,3.62 0 0 1 -1.43,1.64 c -1.69,-0.88 -1.65,-3.23 -2,-5.1 -0.83,-5 -5.53,-8.49 -7.09,-13.31 a 21,21 0 0 1 -0.51,-8 21.1,21.1 0 0 1 1.51,-7.439999 15.28,15.28 0 0 1 7.87,-7.14 41.77,41.77 0 0 1 9.53,-2.6 55.2,55.2 0 0 1 8.17,-1.33 c 5.08,-0.16 8.47,6.33 7.1,10.77 z"
     fill="#2e2e3f"
     id="path44" />
  <path
     d="m 193.42935,204.89185 a 8.89,8.89 0 0 1 2.95,0.47 7.5,7.5 0 0 1 2.3,1.62 c 7.64,7.16 9.95,18.19 11.87,28.48 3.23,17.26 6.46,34.6 6.9,52.15 0.09,3.46 1.49,6.61 -0.13,9.66 -1.62,3.05 -9.05,3.35 -12.32,2.23 -3.27,-1.12 -2.46,-2.43 -3.78,-5.66 -2.69,-6.54 -6.49,-12.54 -10.26,-18.54 l -13.78,-21.83 c -2.2,-3.48 -4.49,-7.06 -7.86,-9.44 -4.74,-3.34 -10.84,-3.79 -16.54,-4.84 -5.7,-1.05 -11.87,-3.28 -14.49,-8.45 -4.69,-9.29 1.53,-21.93 11.51,-23.11 14.56,-1.75 28.93,-3.33 43.63,-2.74 z"
     fill="#2e2e3f"
     id="path46" />
  <path
     d="m 193.42935,204.89185 a 8.89,8.89 0 0 1 2.95,0.47 7.5,7.5 0 0 1 2.3,1.62 c 7.64,7.16 9.95,18.19 11.87,28.48 3.23,17.26 6.46,34.6 6.9,52.15 0.09,3.46 0.75,6.46 -0.87,9.52 -1.62,3.06 -6.67,3.78 -9.95,2.67 -3.28,-1.11 -4.09,-2.73 -5.41,-6 -2.69,-6.5 -6.49,-12.5 -10.26,-18.5 l -13.78,-21.83 c -2.2,-3.48 -4.49,-7.06 -7.86,-9.44 -4.74,-3.34 -10.84,-3.79 -16.54,-4.84 -5.7,-1.05 -11.87,-3.28 -14.49,-8.45 -4.69,-9.29 1.53,-21.93 11.51,-23.11 14.56,-1.75 28.93,-3.33 43.63,-2.74 z"
     fill="url(#linear-gradient-3)"
     id="path48"
     style="fill:url(#linear-gradient-3)" />
  <path
     d="m 209.60935,261.51185 a 9.51,9.51 0 0 0 1,3.13 c 1.39,2.37 4.37,3.35 7.13,3.4 a 6.58,6.58 0 0 0 3.42,-0.69 5.48,5.48 0 0 0 2.39,-3.46 13.71,13.71 0 0 0 0.23,-4.29 70.83,70.83 0 0 0 -1.14,-9.18 2.63,2.63 0 0 0 -0.49,-1.26 c -0.65,-0.75 -1.85,-0.52 -2.8,-0.23 -2.38,0.72 -8.23,1.32 -9.92,3.17 -1.9,2.11 0.18,6.91 0.18,9.41 z"
     fill="#f5bbb9"
     id="path50" />
  <path
     d="m 222.73935,263.51185 a 33.82,33.82 0 0 0 -3.59,1.35 10.11,10.11 0 0 1 -4.84,0.44 c -1.75,-0.28 -3.89,-0.89 -5,0.48 a 3.93,3.93 0 0 0 -0.4,3.22 35.5,35.5 0 0 0 1.75,6.22 6.23,6.23 0 0 0 1.07,2 c 1.19,1.33 3.19,1.49 5,1.56 a 164.81,164.81 0 0 0 19.12,0 c 1.91,-0.14 4.26,-0.72 4.68,-2.59 a 4,4 0 0 0 -0.79,-2.93 c -1.9,-3 -4.9,-5 -8,-6.58 -2.71,-1.38 -5.89,-3.84 -9,-3.17 z"
     fill="#2e2e3f"
     id="path52" />
  <path
     d="m 215.11935,302.98185 a 28.36,28.36 0 0 0 -3.07,1.15 8.64,8.64 0 0 1 -4.13,0.36 c -1.49,-0.24 -3.32,-0.76 -4.29,0.41 a 3.35,3.35 0 0 0 -0.34,2.75 31.1,31.1 0 0 0 1.49,5.3 5.29,5.29 0 0 0 0.92,1.68 c 1,1.13 2.72,1.27 4.24,1.33 a 141.21,141.21 0 0 0 16.33,0 c 1.63,-0.12 3.63,-0.62 4,-2.21 a 3.37,3.37 0 0 0 -0.67,-2.5 16.74,16.74 0 0 0 -6.84,-5.62 c -2.27,-1.14 -4.99,-3.23 -7.64,-2.65 z"
     fill="#2e2e3f"
     id="path54" />
  <path
     d="m 118.85935,132.30185 c -7.38,3.08 -12.69,9.72 -16.7,16.64 -9.690002,16.7 -13.620002,36 -17.410002,54.94 -0.78,3.92 -1.57,7.9 -1.25,11.89 a 15.9,15.9 0 0 0 1.14,4.91 c 2.46,5.81 9,8.95 15.33,9.33 5.580002,0.35 11.110002,-1 16.640002,-1.84 4.65,-0.66 9.36,-0.9 13.91,-2 4.55,-1.1 9,-3.33 11.84,-7.07 3.26,-4.34 3.84,-10.07 4.31,-15.47 l 2.51,-29.3 c 0.75,-8.78 1.45,-18 -2,-26.08 a 27.64,27.64 0 0 0 -11.71,-13 c -4.94,-2.95 -11.16,-5.28 -16.61,-2.95 z"
     fill="#2a94f4"
     id="path56" />
  <path
     d="m 149.17935,174.23185 -0.51,5.94 q -1,11.69 -2,23.36 c -0.35,4 -0.75,8.1 -2.23,11.73 a 16.35,16.35 0 0 1 -2.08,3.74 c -2.81,3.74 -7.29,5.93 -11.84,7.07 -4.55,1.14 -9.27,1.39 -13.91,2 -5.54,0.79 -11.06,2.19 -16.640002,1.84 -6.29,-0.38 -12.88,-3.52 -15.34,-9.33 a 16.18,16.18 0 0 1 -1.13,-4.91 c -0.32,-4 0.47,-8 1.25,-11.89 3.79,-18.93 7.72,-38.24 17.410002,-54.94 4,-6.92 9.32,-13.56 16.71,-16.64 5.45,-2.28 11.66,0.07 16.62,2.9 a 27.62,27.62 0 0 1 11.71,13 c 3.43,8.2 2.73,17.35 1.98,26.13 z"
     fill="url(#linear-gradient-4)"
     id="path58"
     style="fill:url(#linear-gradient-4)" />
  <path
     d="m 148.97935,171.68185 c -0.1,2.83 -0.21,5.66 -0.31,8.49 q -1,11.69 -2,23.36 c -0.35,4 -0.75,8.1 -2.23,11.73 -2.66,2.63 -6.74,3.5 -10.5,4.18 a 1.23,1.23 0 0 1 -1.75,-1.32 c -0.78,-9.21 2.42,-18.27 3,-27.5 a 49.21,49.21 0 0 0 -2.75,-19.54 c -1.25,-3.52 -8.79,-13.74 -0.27,-13.36 a 11.24,11.24 0 0 1 5,1.86 51.66,51.66 0 0 1 10,7.78 5.79,5.79 0 0 1 1.53,2.12 6,6 0 0 1 0.28,2.2 z"
     fill="url(#linear-gradient-5)"
     id="path60"
     style="fill:url(#linear-gradient-5)" />
  <path
     d="m 150.30935,130.61185 a 3.52,3.52 0 0 1 0.15,-3.14 4.09,4.09 0 0 1 2.32,-1.26 c 1.37,-0.39 2.76,-0.73 4.16,-1 a 5.86,5.86 0 0 1 1.9,-0.19 c 1.53,0.17 2.68,1.43 3.67,2.59 a 12,12 0 0 1 2.5,3.85 11.77,11.77 0 0 1 0.33,4.23 l -0.13,3.23 a 5.43,5.43 0 0 1 -0.28,1.75 3.57,3.57 0 0 1 -1.27,1.53 7.26,7.26 0 0 1 -3.47,1.2 c -1.41,0.15 -3.58,0.05 -4.5,-1.24 -0.6,-0.83 -0.41,-2.22 -0.82,-3.19 -1.22,-2.95 -3.56,-5.32 -4.56,-8.36 z"
     fill="#f5bbb9"
     id="path62" />
  <path
     d="m 86.699348,223.95185 h -0.39 l 0.22,-1.36 c -1.64,14.13 3.07,31.07 18.160002,35.29 13,3.63 25.47,3.72 38,-0.45 10.17,-3.37 19.81,-10.14 27.7,-17.37 6.81,-6.24 12.07,-14 19.06,-20 1.63,2.56 4,4.32 5.79,6.75 2.23,3 2.48,6.32 3.69,9.7 1.28,3.6 3.56,6.69 5.11,10.16 3.15,7 4.49,10.32 12.53,10.33 2.68,0 3.86,0.48 5.65,-1.53 2.92,-3.29 1.81,-12.55 1.62,-16.48 -0.69,-13.88 -2.76,-28.45 -7.61,-41.52 -2.68,-7.21 -6,-14.31 -11.44,-19.82 -7.33,-7.38 -15.59,-4.42 -23.51,0.25 -9.65,5.7 -18.26,14.22 -26.28,22.09 -3.32,3.25 -5.42,6.17 -9.4,8.84 -4.41,3 -8.71,5.28 -13.4,7.82 -13.26,7.18 -30.89,7.3 -45.500002,7.3 z"
     fill="#2e2e3f"
     id="path64" />
  <path
     d="m 197.52935,293.92185 a 22.24,22.24 0 0 1 -0.71,4 c -2.57,9.35 -11.63,15.78 -21.07,18 -9.44,2.22 -19.31,1 -28.92,-0.29 -21.47,-2.89 -142.8800019,-11.26 -128.520002,-153.69 1.72,-17.16 12.21,-39.85 28.52,-43.14 a 21.21,21.21 0 0 1 9.38,0.25 c 34.08,8.43 7.66,69.31 54.440002,90.82 13.9,6.39 25.5,17.09 39.77,22.59 25.48,9.85 41,38.18 41,38.18 3.34,7.37 6.75,15.4 6.11,23.28 z"
     fill="#2a94f4"
     id="path66" />
  <path
     d="m 205.18935,158.45185 c 3.1,2.58 4,6.95 4.08,11 a 3.76,3.76 0 0 1 -0.55,2.41 4,4 0 0 1 -1.15,0.88 c -2.31,1.36 -5,2.76 -7.54,1.93 -2.23,-0.73 -3.65,-3 -5.82,-3.89 -1.79,-0.74 -4,-0.53 -5.44,-1.86 a 4.57,4.57 0 0 1 -1.2,-2.25 c -2.67,-10.79 10.8,-13.88 17.62,-8.22 z"
     fill="#f5bbb9"
     id="path68" />
  <path
     d="m 158.44935,153.01185 a 12.71,12.71 0 0 0 3.65,2.26 11.23,11.23 0 0 0 4.44,0.32 c 8.63,-0.68 17.43,-3.52 25.77,-1.19 a 6.06,6.06 0 0 1 3.16,1.74 5.36,5.36 0 0 1 1,3.4 c 0,6 -4.88,11 -10.26,13.75 -6.19,3.14 -13.2,4.19 -20.07,5.2 -4.66,0.68 -9.37,1.36 -14.07,0.92 a 12.14,12.14 0 0 1 -6.07,-1.85 c -40.65,-29.38 -26.48,-33.75 -23.72,-42.15 1.44,-4.39 19.57,4.42 23.79,7.77 4.22,3.35 8.24,6.55 12.38,9.83 z"
     fill="#2a94f4"
     id="path70" />
  <path
     d="m 197.52935,293.92185 a 22.24,22.24 0 0 1 -0.71,4 c -2.57,9.35 -11.63,15.78 -21.07,18 -9.44,2.22 -19.31,1 -28.92,-0.29 -21.47,-2.89 -142.8800019,-11.26 -128.520002,-153.69 1.72,-17.16 12.21,-39.85 28.52,-43.14 0.77,4.5 -3.19,9.89 -4.69,14.74 a 103.31,103.31 0 0 0 -2.83,48.59 98.81,98.81 0 0 0 8.78,26.56 c 5.71,11.41 13.54,21.62 21.66,31.47 6.1,7.4 12.54,14.76 20.76,19.69 7.43,4.46 16.000002,6.72 24.440002,8.54 a 294.6,294.6 0 0 0 33.95,5.26 c 15.37,1.47 32.3,2.33 43.51,13 a 21,21 0 0 1 5.12,7.27 z"
     fill="url(#linear-gradient-6)"
     id="path72"
     style="fill:url(#linear-gradient-6)" />
  <path
     d="m 225.72935,56.041851 a 20.45,20.45 0 0 1 -2.35,9.58 l -8.52,21.27 h -20.86 l -7.92,-22.45 a 20.46,20.46 0 0 1 -1.78,-8.4 20.72,20.72 0 0 1 41.43,0 z"
     fill="#2a94f4"
     id="path74" />
  <path
     d="m 225.72935,56.041851 a 20.45,20.45 0 0 1 -2.35,9.58 l -8.52,21.27 h -20.86 l -7.92,-22.45 a 20.46,20.46 0 0 1 -1.78,-8.4 20.72,20.72 0 0 1 41.43,0 z"
     opacity="0.69"
     fill="url(#radial-gradient-2)"
     style="isolation:isolate;fill:url(#radial-gradient-2)"
     id="path76" />
  <path
     d="m 201.62935,87.231851 a 47.69,47.69 0 0 1 -4.68,-20.36 c 0,-1.58 0.22,-3.44 1.61,-4.21 1.69,-0.94 3.78,0.53 4.71,2.23 a 9,9 0 0 1 0.5,7.32 9.65,9.65 0 0 1 -1.64,-5 8.82,8.82 0 0 1 0.24,-3.93 3.42,3.42 0 0 1 2.88,-2.38 c 2,-0.07 3.36,2.21 3.58,4.23 a 10.28,10.28 0 0 1 -1.51,6.6 7.79,7.79 0 0 1 1.6,-7.63 4.45,4.45 0 0 1 2.32,-1.44 2.45,2.45 0 0 1 2.47,0.87 3.34,3.34 0 0 1 0.5,1.48 c 0.53,3.82 -0.79,7.66 -2.45,11.15 -1.66,3.49 -3.66,6.84 -4.63,10.58"
     fill="none"
     stroke="#ffffff"
     stroke-miterlimit="10"
     stroke-width="0.79"
     id="path78" />
  <rect
     x="192.47935"
     y="86.651855"
     width="23.450001"
     height="11.19"
     rx="2.3399999"
     fill="#2a94f4"
     id="rect80" />
  <rect
     x="192.47935"
     y="86.651855"
     width="23.450001"
     height="11.19"
     rx="2.3399999"
     fill="url(#linear-gradient-7)"
     id="rect82"
     style="fill:url(#linear-gradient-7)" />
  <rect
     x="191.22935"
     y="90.361855"
     width="26.219999"
     height="4.0599999"
     rx="1.96"
     fill="#2a94f4"
     id="rect84" />
  <rect
     x="191.22935"
     y="90.361855"
     width="26.219999"
     height="4.0599999"
     rx="1.96"
     fill="url(#linear-gradient-8)"
     id="rect86"
     style="fill:url(#linear-gradient-8)" />
  <metadata
     id="metadata906">
    <rdf:RDF>
      <cc:Work
         rdf:about="">
        <dc:title>Thinking</dc:title>
      </cc:Work>
    </rdf:RDF>
  </metadata>
</svg>
